<svg version="1.2" xmlns="http://www.w3.org/2000/svg" viewBox="0 0 1513 859" width="1513" height="859">
	<title>cacisss-svg</title>
	<style>
		.s0 { fill: #ffffff } 
	</style>
	<path id="Layer" fill-rule="evenodd" class="s0" d="m452.3 8.3l-0.2 170.8c-0.7 6.7-5.8 7.4-6.7 0.4-6.5-94.9-118.1-183.3-222.7-145.4-124.8 45.2-142 182.7-128.4 288.8 5.4 42 16.9 80.3 45.9 116.2 29.2 36.1 69.3 60.2 117.9 64.4 79.1 6.8 149.6-29.6 193.4-90.9 1.1-1.7 4.8 0.8 4.3 1.9-48.8 109.8-203.8 158.1-318.7 91.6-150.3-87-175.2-267.5-83.6-399.1 75.5-108.3 230.7-137.5 351.7-73.3 18.3 9.7 31.6-10.6 40.7-25.5zm994.5 476.7c0 25.4 45.5 30.2 60.6 29.9v11.4h-208v-11.4c12.4 0.3 63.4-4.5 63.4-29.9v-438.8c0-34.3-56.5-30.2-63.4-31.4v-11.5h208v11.5c-6.9 1.2-60.6-3.6-60.6 31.4zm-159.7-476.7l-0.3 170.9c-0.7 6.6-5.8 7.4-6.7 0.4-6.5-95-118-183.4-222.7-145.5-124.8 45.3-141.9 182.7-128.4 288.8 5.4 42.1 16.9 80.3 46 116.2 29.2 36.1 69.3 60.2 117.8 64.4 79.1 6.9 149.6-29.5 193.4-90.9 1.1-1.6 4.9 0.9 4.3 1.9-48.8 109.8-203.8 158.2-318.7 91.7-150.3-87.1-175.2-267.5-83.5-399.1 75.4-108.3 230.7-137.6 351.7-73.3 18.2 9.7 31.5-10.7 40.6-25.5zm-361.6 509.9v8.3l-190.8 0.1v-8c21.1 0 67.5-4.2 55.8-33.1l-55.1-126.7-0.1-0.3h-182.2l-0.1 0.4-53.8 119.7c-10.8 31.3 24.3 35.5 53.7 40v7.9h-138.5v-8c16.7-5.5 26.3-10.8 33.8-24.7l214.9-487.7 214.9 488.4c11 23.3 35.8 23.7 47.5 23.7zm-205.1-193.3l-79-178.1-74.3 178.1zm-690.1 283.1h1481.8v50.1h-1481.8zm41.3 184.6h26.1c15.5 0 21.5-1.4 22.7-16.9h3.5v40.2h-3.5c-1.6-15.3-6.9-17.1-22.7-17.1h-26.1v42.2c0 7.1 2.4 8.7 10.6 8.7h26.7c17.2 0 23.5-7.1 33.7-22.6h3.7l-11 28.9h-100.6v-3.1c18.5 0 18.5-4.4 18.5-19v-71.1c0-14.6 0-19-18.5-19v-3.1h99.6l1.8 25.2h-3.9c-3.7-17.6-9-19-27.5-19h-33.1zm177.1-25.1c1.6-3.3 5.3-11.6 5.3-14.9 0-6.3-8.1-8.2-13.8-8.7v-3.2h40.1v3.2c-12 1-16.3 9.7-20.4 18.6l-44.4 96.2h-3.5l-47.6-97.4c-5.1-10.7-7.1-16.6-21.6-17.4v-3.2h53.1v3.2c-6 0.7-14.5 0.8-14.5 8.1 0 4.6 3.6 10.8 5.5 14.8l32 65.7zm74.5 25.1h26.1c15.5 0 21.5-1.4 22.7-16.9h3.5v40.2h-3.5c-1.6-15.3-6.8-17-22.7-17h-26.1v42.1c0 7.2 2.3 8.7 10.6 8.7h26.6c17.3 0 23.6-7.1 33.8-22.6h3.7l-11 28.9h-100.6v-3.1c18.5 0 18.5-4.4 18.5-19v-71.1c0-14.6 0-19-18.5-19v-3.1h99.6l1.8 25.2h-3.9c-3.8-17.6-9-18.9-27.5-18.9h-33.1zm179 63.4l-44.2-53.9h-13.3v31.7c0 14.7 0 19 18.4 19v3.2h-55.3v-3.2c18.5 0 18.5-4.3 18.5-19v-71.1c0-14.6 0-18.9-18.5-18.9v-3.2h56.3c38.2 0 45.1 19.9 45.1 30 0 16.7-15.1 26.1-32.1 29.3l25.2 31.3c9.7 11.9 16.7 20.4 34.5 21.6v3.2zm-57.4-59.4h4.3c18.6 0 38.3-6 38.3-25.3 0-14-10.6-24.4-26.5-24.4-5.5 0-10.8 0.9-16.1 1.6zm243.9-29.1c1.5-3.3 5.3-11.7 5.3-15 0-6.3-8.1-8.2-13.8-8.7v-3.2h40v3.2c-11.9 1-16.2 9.7-20.3 18.6l-44.4 96.2h-3.5l-47.6-97.4c-5.1-10.6-7.1-16.6-21.6-17.4v-3.2h53.1v3.2c-6.1 0.7-14.5 0.8-14.5 8.2 0 4.5 3.5 10.8 5.5 14.8l32 65.6zm76.5 66.4c0 14.6 0 19 18.4 19v3.1h-55.3v-3.1c18.5 0 18.5-4.3 18.5-19v-71.1c0-14.6 0-18.9-18.5-18.9v-3.2h55.3v3.2c-18.4 0-18.4 4.3-18.4 18.9zm143.9 14.7c-13.6 6.6-29 10.1-44.7 10.1-57.5 0-72.4-37.8-72.4-58.4 0-26.9 22.2-62.2 68.6-62.2 9.6 0 16.9 1.6 24.2 3.8 2.9 0.9 9.6 3.5 12.1 3.5 4.3 0 4.7-4.3 4.9-7.3h3.5l3.4 36.4h-3.6c-6.4-19.1-20.2-30.5-43.3-30.5-32.9 0-47.8 26.4-47.8 52.5 0 33.3 20.7 56.3 50.3 56.3 8.3 0 18.7-2 26.3-6.3v-31.2c0-14.6 0-19-18.4-19v-3.1h51.6v3.1c-12.6 0-14.7 4-14.7 16.2 0 0 0 36.1 0 36.1zm63.2-14.1c0 14.6 0 19 18.5 19v3.1h-55.3v-3.1c18.4 0 18.4-4.4 18.4-19v-71.1c0-14.6 0-19-18.4-19v-3.1h55.3v3.1c-18.5 0-18.5 4.4-18.5 19zm72.3-0.5c0 8.7 0 15.1 8.8 15.1h29c15.7 0 25.5-5.7 33.8-24.4l3.1 0.6-11.2 31.3h-100.3v-3.1c18.4 0 18.4-4.4 18.4-19v-71.1c0-14.6 0-19-18.4-19v-3.1h58.6v3.1c-21.8 0-21.8 5.1-21.8 20.8 0 0 0 68.8 0 68.8zm107.9-16.1l-7.8 16.2c-1.6 3-4.3 8.4-4.3 11.7 0 6.4 7.8 7.2 15.1 7.7v3.1h-40.8v-3.1c10.2-0.9 14.3-5.4 20.2-17.6l46.7-97.2h3.5l44.1 94c4.9 10.5 8.6 20.3 23.1 20.8v3.1h-51.1v-3.1c8.4-0.4 13.3-1.8 13.3-7.9 0-3.8-3.1-9.7-4.7-13.2l-7.1-14.5c0 0-50.2 0-50.2 0zm25.5-52.7l-22.5 46.5h44.7zm108.4 69.3c0 14.6 0 19 18.4 19v3.1h-45.3v-3.1c18.4 0 18.4-4.3 18.4-19v-78c-7-7.9-12.5-12.1-25.7-12.1v-3.1h35.3l79 86.2h0.4v-64.1c0-14.6 0-19-18.4-19v-3.1h45.3v3.1c-18.4 0-18.4 4.4-18.4 19v95.1h-3.6l-85.1-92.6h-0.3zm179.6 0c0 14.6 0 19 18.5 19v3.1h-55.3v-3.1c18.4 0 18.4-4.4 18.4-19v-85.8h-19.4c-16.3 0-21.2 8.8-22.2 19.6h-3.5l1.4-27.1h105.8l1.4 27.1h-3.5c-1-10.8-5.9-19.6-22.2-19.6h-19.4c0 0 0 85.8 0 85.8z"/>
</svg>