<svg version="1.2" xmlns="http://www.w3.org/2000/svg" viewBox="0 0 1567 315" width="1567" height="315">
	<title>EVBG-Logo-Black-RGB-ai</title>
	<style>
		.s0 { fill: #ffffff } 
	</style>
	<g id="Layer 1">
		<g id="&lt;Group&gt;">
			<g id="&lt;Group&gt;">
				<path id="&lt;Compound Path&gt;" fill-rule="evenodd" class="s0" d="m257 0.1v54.6h-4c-51.8 0-98.2 31.6-115.4 78.6-9.1 24.6-8.8 45.2-8.8 45.4l0.1 4.1h-0.1-54.6v-4c0-38.7-31.5-70.1-70.2-70.1h-4v-54.7h4c34.9 0 68 14.6 91.7 40.2 1.1-2.2 1.8-3.5 1.8-3.6h0.1c31.8-55.8 91.4-90.5 155.4-90.5zm-180.1 150.4c3.5-19.4 9.9-36.3 14.2-46.4q0.5-1 0.9-2c-21.4-24.5-51.7-38.9-84-40v38.7c31.4 1.6 58 21.8 68.9 49.7zm43.9 24.3c-0.8-23.9-8.8-46.5-23.1-65.7-5.9 14-14.6 39.1-15.5 65.7zm128.3-166.7c-59.6 1.4-114.7 34.3-144.5 86.4-0.2 0.2-1.4 2.5-3.2 6.3q0.9 1.2 1.9 2.5c10.3 13.4 17.5 28.4 21.7 44.3 1.2-5.3 2.9-11.1 5.1-17.1 18-48.9 65.4-82.1 119-83.7z"/>
			</g>
			<g id="&lt;Group&gt;">
				<path id="&lt;Compound Path&gt;" fill-rule="evenodd" class="s0" d="m320.4 161.2c2.5 9.3 3.3 18.9 2.5 28.6-0.2 2.6-2.4 4.6-5.1 4.6h-100.9q0.2 7.3 2.3 14.2c1.5 4.9 3.8 9.3 6.8 13.1 3 3.6 6.8 6.6 11.4 8.8 4.6 2.2 10.2 3.4 16.6 3.4 8.9 0 16.1-2 21.5-5.7 5.3-3.8 9.4-9.6 12.1-17.2l0.3-1.1h33.1l-0.4 1.9c-1.7 7.9-4.7 15.1-8.9 21.4-4.1 6.2-9.2 11.5-15.1 15.8-5.9 4.3-12.5 7.5-19.8 9.7-7.3 2.1-14.9 3.2-22.8 3.2-11.5 0-21.8-1.9-30.7-5.6-8.8-3.8-16.5-9.2-22.6-16-6.2-6.8-10.9-15-14-24.4-3.1-9.4-4.7-19.8-4.7-31.1 0-10.3 1.7-20.2 5-29.5 3.3-9.3 8.1-17.6 14.2-24.7 6.2-7.1 13.7-12.8 22.4-16.9 8.7-4.2 18.6-6.3 29.6-6.3 11.5 0 22 2.5 31.1 7.3 9.2 4.8 16.9 11.3 22.9 19.2 6 7.9 10.5 17.1 13.2 27.3zm-103.4 9.3h70.6q-0.6-6.4-2.9-12.3c-1.7-4.5-4-8.4-6.9-11.7-3-3.2-6.5-5.9-10.7-7.9-4.1-2.1-8.6-3.1-13.9-3.1-5.4 0-10.2 1-14.6 2.8-4.3 1.9-8 4.5-11.1 7.7-3.1 3.3-5.7 7.2-7.5 11.6-1.7 4-2.7 8.3-3 12.9zm249.2-57.1c0.9 1.4 1.2 3.1 0.6 4.7l-48.9 136.5c-0.7 2.1-2.7 3.4-4.8 3.4h-30.6c-2.1 0-4-1.3-4.8-3.3l-49.7-136.6c-0.6-1.5-0.3-3.3 0.6-4.6 1-1.4 2.5-2.2 4.2-2.2h30.5l0.4 1.1 33.2 99.9c0.5 1.3 1.6 1.4 1.9 1.4 0.7 0 1.6-0.4 1.9-1.4l32-99.9 0.4-1.1h28.9c1.6 0 3.2 0.8 4.2 2.1zm141 47.8c2.5 9.2 3.3 18.8 2.5 28.6-0.2 2.6-2.4 4.6-5.1 4.6h-100.9q0.2 7.3 2.3 14.1c1.5 5 3.8 9.4 6.8 13.1 3 3.7 6.8 6.7 11.4 8.9 4.6 2.2 10.2 3.3 16.6 3.3 8.9 0 16.1-1.9 21.5-5.7 5.3-3.8 9.4-9.5 12.1-17.1l0.3-1.1h33.1l-0.4 1.9c-1.7 7.9-4.7 15.1-8.8 21.3-4.2 6.3-9.3 11.6-15.2 15.9-5.8 4.2-12.5 7.5-19.8 9.7-7.2 2.1-14.9 3.2-22.8 3.2-11.5 0-21.8-1.9-30.7-5.7-8.8-3.7-16.5-9.1-22.6-15.9-6.2-6.8-10.9-15-14-24.4-3.1-9.4-4.6-19.9-4.6-31.1 0-10.3 1.6-20.3 4.9-29.6 3.3-9.3 8.1-17.5 14.2-24.6 6.2-7.1 13.7-12.8 22.4-17 8.7-4.1 18.6-6.2 29.6-6.2 11.5 0 22 2.4 31.1 7.3 9.2 4.8 16.9 11.2 22.9 19.2 6.1 7.9 10.5 17.1 13.2 27.3zm-103.4 9.3h70.7q-0.7-6.4-3-12.4c-1.7-4.4-4-8.3-6.9-11.6-2.9-3.2-6.5-5.9-10.7-8-4.1-2-8.6-3-13.9-3-5.3 0-10.2 1-14.5 2.8-4.4 1.8-8.1 4.4-11.2 7.7-3.1 3.3-5.6 7.2-7.5 11.6-1.7 4-2.7 8.3-3 12.9zm364.9-15.3c2.8 9.3 4.2 19.5 4.2 30.1 0 9.7-1.2 19.3-3.8 28.5-2.5 9.2-6.4 17.4-11.6 24.5-5.2 7.1-11.9 12.9-19.9 17.1-8 4.3-17.5 6.5-28.2 6.5-4.9 0-9.9-0.4-14.8-1-5.1-0.7-9.9-2-14.5-3.9-4.5-1.9-8.7-4.4-12.5-7.4-2.6-2.2-5-4.9-7-8v11.3c0 2.8-2.3 5.1-5.1 5.1h-28v-203.9h29.7c2.7 0 5 2.3 5 5.1v68.1c1.8-2.4 3.9-4.5 6.1-6.5 3.2-2.9 6.8-5.3 10.7-7.3 3.9-2 8.1-3.5 12.3-4.6 4.3-1 8.6-1.5 12.8-1.5 11.5 0 21.6 2 30.3 6.1 8.6 4.1 15.8 9.7 21.5 16.8 5.7 7.1 10 15.4 12.8 24.9zm-32.9 11.1c-1.6-5.9-4.1-11.2-7.3-15.8-3.2-4.5-7.2-8.2-12-10.9-4.8-2.8-10.3-4.2-16.5-4.2-12.8 0-22.5 4.5-28.9 13.3-6.6 8.9-9.9 21-9.9 36 0 7.1 0.9 13.7 2.6 19.7 1.7 6 4.2 11.2 7.6 15.4 3.4 4.3 7.5 7.7 12.2 10.2 4.6 2.4 10.1 3.7 16.4 3.7v0.1c6.9 0 12.9-1.5 17.6-4.3 4.7-2.8 8.8-6.5 11.9-11 3.1-4.6 5.3-9.8 6.7-15.6 1.4-5.9 2-11.8 2-18.2 0-6.3-0.8-12.5-2.4-18.4zm154.6-55h34.8v146.7h-34.8zm171.8-57.1h29.7v203.8h-28c-2.8 0-5.1-2.3-5.1-5.1v-11.1c-4.3 6.5-10 11.4-17 14.5-8.3 3.7-17.2 5.6-26.5 5.6-11.5 0-21.7-2.1-30.3-6.2-8.6-4-15.9-9.6-21.5-16.6-5.7-7-10-15.4-12.8-24.9-2.9-9.5-4.3-19.7-4.3-30.6 0-13.1 1.8-24.6 5.4-34.1 3.6-9.6 8.4-17.6 14.4-23.9 5.9-6.2 12.8-10.9 20.5-13.8 7.7-3 15.6-4.4 23.6-4.4 4.5 0 9.2 0.4 13.9 1.2 4.7 0.9 9.3 2.3 13.6 4.2 4.4 1.9 8.5 4.3 12.2 7.3q4 3.2 7.1 7.2v-68c0-2.8 2.3-5.1 5.1-5.1zm-14.3 94c-6.9-8.6-16-12.7-27.9-12.7-7.1 0-13.2 1.4-18 4.3-4.8 2.9-8.9 6.8-12 11.5-3.1 4.7-5.4 10.2-6.7 16.1-1.4 6.1-2.1 12.4-2.1 18.7 0 6 0.8 11.9 2.3 17.7 1.5 5.7 3.9 10.9 7 15.4 3.1 4.4 7.1 7.9 11.9 10.6 4.7 2.6 10.5 4 17 4h0.1c6.7 0 12.6-1.4 17.4-4.3 4.9-2.8 8.9-6.5 12-11.1 3.2-4.7 5.5-10 7.1-15.8 1.5-5.9 2.3-12 2.3-18.1 0-15.5-3.5-27.7-10.4-36.3zm173.4-40.8h34.8v141.6c0 22-6.3 38.7-18.8 49.6-12.4 10.8-30.4 16.4-53.4 16.4-7.3 0-14.8-0.8-22.2-2.3-7.4-1.5-14.3-4.1-20.5-7.7-6.2-3.6-11.4-8.4-15.6-14.3-4.3-5.9-6.8-13.3-7.5-21.9l-0.2-1.7h34.7l0.2 1.3c0.9 4.1 2.4 7.6 4.4 10.1q3.2 4 7.5 6.2c2.8 1.4 6.1 2.4 9.6 2.9 3.6 0.4 7.5 0.6 11.5 0.6 12.3 0 21.3-3 26.9-8.9 5.7-6 8.5-14.8 8.5-26.2v-17.4c-4.3 6.4-9.8 11.6-16.4 15.4-7.9 4.6-16.6 6.9-25.7 6.9-11.7 0-21.8-2.1-30-6.2-8.2-4-15.2-9.7-20.6-16.8-5.4-7-9.3-15.3-11.8-24.5-2.4-9.2-3.7-19.2-3.7-29.6 0-9.8 1.6-19.2 4.6-28 3-8.9 7.4-16.7 13-23.4 5.8-6.8 12.8-12.2 21-16.1 8.3-4 17.7-6 28.1-6 9.3 0 17.9 1.9 25.7 5.8 6.5 3.3 11.9 8.1 15.9 14.4zm-20 118.5c4.7-2.8 8.5-6.4 11.4-10.9 3-4.6 5.1-9.8 6.5-15.6 1.4-5.9 2-11.9 2-17.9 0-5.9-0.7-11.8-2.1-17.4-1.5-5.5-3.7-10.5-6.6-14.8-3-4.2-6.8-7.5-11.5-10-4.6-2.5-10.1-3.7-16.9-3.7-6.7 0-12.5 1.4-17 4.2-4.6 2.8-8.3 6.5-11.2 11-2.8 4.5-4.9 9.8-6.2 15.6-1.2 5.9-1.9 11.8-1.9 17.6 0 5.8 0.8 11.5 2.2 17 1.5 5.4 3.7 10.3 6.6 14.6 2.9 4.3 6.7 7.8 11.2 10.4 4.5 2.6 10 3.9 16.3 4 6.7-0.1 12.5-1.4 17.2-4.1zm217.4-36c-0.2 2.5-2.4 4.6-5 4.6h-100.9q0.2 7.3 2.2 14.1c1.5 4.9 3.8 9.4 6.8 13.1 3 3.7 6.8 6.7 11.5 8.9 4.5 2.2 10.1 3.3 16.5 3.3 8.9 0 16.1-2 21.5-5.7 5.4-3.8 9.4-9.6 12.1-17.2l0.4-1h33l-0.4 1.8c-1.7 7.9-4.6 15.1-8.8 21.4-4.2 6.3-9.3 11.6-15.1 15.8-5.9 4.3-12.6 7.5-19.8 9.7-7.3 2.2-15 3.3-22.9 3.3-11.4 0-21.8-1.9-30.6-5.7-8.9-3.8-16.5-9.2-22.7-16-6.1-6.7-10.8-15-13.9-24.4-3.1-9.4-4.7-19.8-4.7-31 0-10.4 1.7-20.3 5-29.6 3.3-9.3 8-17.6 14.2-24.7 6.1-7.1 13.6-12.8 22.3-16.9 8.7-4.1 18.7-6.3 29.6-6.3 11.5 0 22 2.5 31.2 7.3 9.1 4.8 16.8 11.3 22.9 19.2 6 7.9 10.4 17.1 13.2 27.4 2.4 9.2 3.2 18.8 2.4 28.6zm-95.4-43.9c-3.1 3.3-5.6 7.2-7.5 11.7-1.7 3.9-2.7 8.2-3 12.8h0.1 70.6q-0.7-6.4-3-12.3c-1.6-4.5-4-8.4-6.9-11.6-2.9-3.3-6.5-6-10.6-8-4.2-2-8.6-3-14-3-5.3 0-10.2 0.9-14.5 2.7-4.3 1.9-8.1 4.5-11.2 7.7zm-396-72c0 10-8.1 18.2-18.2 18.2h-1.7c-10 0-18.2-8.2-18.2-18.2 0-10 8.2-18.1 18.2-18.1h1.7c10 0 18.2 8.1 18.2 18.1zm-313.8 41.1v26.5h-1.6c-29.3 0-52.2 16.5-52.2 37.5v79h-27.8c-2.8 0-5.1-2.3-5.1-5.1v-79.1c0-35.2 35-62.7 81.4-63.9h0.2c2.8 0 5.1 2.3 5.1 5.1zm261.6 0v26.5h-1.6c-29.2 0-52.2 16.5-52.2 37.5v79h-27.8c-2.8 0-5.1-2.3-5.1-5.1v-79.1c0-35.2 35-62.7 81.5-63.9h0.1c2.8 0 5.1 2.3 5.1 5.1zm543.9-3.6v-4.1h19.2v4.1h-7.1v19.3h-4.9v-19.3zm22.3-4.1h6.1l6.4 15.7h0.3l6.4-15.7h6.1v23.4h-4.8v-15.2h-0.1l-6.1 15.1h-3.3l-6-15.2h-0.2v15.3h-4.8z"/>
			</g>
		</g>
	</g>
</svg>