<?xml version="1.0" encoding="UTF-8"?>
<!DOCTYPE svg PUBLIC "-//W3C//DTD SVG 1.1//EN" "http://www.w3.org/Graphics/SVG/1.1/DTD/svg11.dtd">
<svg xmlns="http://www.w3.org/2000/svg" version="1.1" width="396px" height="388px" style="shape-rendering:geometricPrecision; text-rendering:geometricPrecision; image-rendering:optimizeQuality; fill-rule:evenodd; clip-rule:evenodd" xmlns:xlink="http://www.w3.org/1999/xlink">
<g><path style="opacity:1" fill="#598d3e" d="M 214.5,46.5 C 215.595,51.1882 217.595,55.3548 220.5,59C 215.703,66.7912 210.036,67.1245 203.5,60C 195.54,58.4512 187.54,57.1178 179.5,56C 172.076,53.4607 164.576,51.294 157,49.5C 154.516,49.8258 152.349,50.8258 150.5,52.5C 149.558,52.3918 148.725,52.0585 148,51.5C 147.727,53.3289 146.893,54.8289 145.5,56C 140.683,58.422 136.016,60.922 131.5,63.5C 125.23,67.3076 118.897,71.141 112.5,75C 111.289,75.8928 111.289,76.7261 112.5,77.5C 114.4,75.3841 116.733,74.0507 119.5,73.5C 123.027,73.0469 126.027,71.5469 128.5,69C 130.891,68.7132 133.224,68.2132 135.5,67.5C 136.167,68.1667 136.833,68.8333 137.5,69.5C 138.5,68.1667 139.5,68.1667 140.5,69.5C 143.783,65.474 148.116,63.6407 153.5,64C 156.12,61.729 159.12,61.0623 162.5,62C 167.193,65.107 171.859,64.9403 176.5,61.5C 181.615,63.5543 186.782,65.221 192,66.5C 194.838,65.3247 197.671,65.4914 200.5,67C 207.254,69.8759 213.921,73.0426 220.5,76.5C 224.363,77.6936 227.363,80.027 229.5,83.5C 230.048,85.3936 231.048,87.0603 232.5,88.5C 230.833,88.8333 229.167,89.1667 227.5,89.5C 214.204,87.4291 200.871,87.0957 187.5,88.5C 185.667,88.5854 184.334,89.2521 183.5,90.5C 168.361,93.1486 154.695,98.9819 142.5,108C 135.092,112.367 127.092,115.034 118.5,116C 117.244,116.417 116.577,117.25 116.5,118.5C 118.076,119.283 119.409,120.45 120.5,122C 117.572,121.544 114.572,121.544 111.5,122C 109.681,122.74 108.348,123.907 107.5,125.5C 104.697,128.204 103.863,131.537 105,135.5C 106.271,136.883 107.771,137.883 109.5,138.5C 115.113,140.258 121.113,141.424 127.5,142C 128.617,143.892 130.284,144.725 132.5,144.5C 132.5,145.5 132.5,146.5 132.5,147.5C 133.873,147.343 135.207,147.51 136.5,148C 143.076,152.787 150.076,156.787 157.5,160C 158.861,161.584 159.528,163.418 159.5,165.5C 157.167,165.5 154.833,165.5 152.5,165.5C 145.676,163.171 139.176,160.171 133,156.5C 131.073,157.762 131.24,158.762 133.5,159.5C 136.769,163.744 141.102,166.411 146.5,167.5C 147.246,168.736 147.579,170.07 147.5,171.5C 150.862,171.07 153.695,172.07 156,174.5C 158.838,172.204 161.338,172.704 163.5,176C 167.167,176.333 170.833,176.667 174.5,177C 176.125,177.853 176.458,178.853 175.5,180C 178.167,180.333 180.833,180.667 183.5,181C 189.292,181.471 194.459,181.304 199,180.5C 199.333,181.167 199.667,181.833 200,182.5C 203.074,181.57 206.24,179.903 209.5,177.5C 210.5,177.833 211.167,178.5 211.5,179.5C 210.923,181.55 209.59,182.55 207.5,182.5C 207.5,183.833 207.5,185.167 207.5,186.5C 202.033,187.13 196.7,188.463 191.5,190.5C 191.833,191.167 192.167,191.833 192.5,192.5C 188.865,195.293 184.865,197.46 180.5,199C 178.167,200.243 177.5,201.909 178.5,204C 181.036,204.339 183.536,204.839 186,205.5C 187.584,205.012 188.751,204.012 189.5,202.5C 192.839,204.235 195.506,203.568 197.5,200.5C 199.535,199.959 201.535,199.292 203.5,198.5C 202.359,197.575 202.359,196.741 203.5,196C 207.296,194.634 210.63,192.8 213.5,190.5C 214.391,189.89 215.391,189.557 216.5,189.5C 217.873,189.657 219.207,189.49 220.5,189C 226.151,185.6 231.818,182.1 237.5,178.5C 238.711,177.28 238.711,176.113 237.5,175C 240.454,172.104 244.121,170.771 248.5,171C 250.324,170.34 251.657,169.173 252.5,167.5C 256.871,165.967 260.205,163.134 262.5,159C 263.333,158.833 264.167,158.667 265,158.5C 274.034,160.692 283.201,161.692 292.5,161.5C 293.5,161.5 294.5,161.5 295.5,161.5C 306.326,162.659 317.326,162.826 328.5,162C 340.431,159.573 352.431,157.74 364.5,156.5C 365.263,160.409 363.93,161.742 360.5,160.5C 358.385,163.953 356.718,167.62 355.5,171.5C 354.264,172.246 352.93,172.579 351.5,172.5C 351.5,173.5 351.5,174.5 351.5,175.5C 349.345,175.372 347.345,175.872 345.5,177C 346.252,177.671 346.586,178.504 346.5,179.5C 346.167,180.5 345.5,181.167 344.5,181.5C 340.905,181.976 337.572,183.142 334.5,185C 330.812,185.45 327.146,185.283 323.5,184.5C 323.5,185.833 323.5,187.167 323.5,188.5C 318.968,188.069 314.635,188.569 310.5,190C 301.5,190.667 292.5,190.667 283.5,190C 279.237,186.282 274.237,184.449 268.5,184.5C 267.508,184.328 266.842,184.662 266.5,185.5C 265.761,185.369 265.094,185.536 264.5,186C 265.167,187.333 266.167,188.333 267.5,189C 271.83,190.176 275.83,192.009 279.5,194.5C 284.859,194.709 289.192,196.875 292.5,201C 294.81,201.497 297.143,201.663 299.5,201.5C 299.715,199.821 299.048,198.821 297.5,198.5C 297.97,197.307 298.97,196.64 300.5,196.5C 305.229,198.168 309.729,197.835 314,195.5C 317.332,195.75 320.832,195.75 324.5,195.5C 324.588,192.691 326.088,191.358 329,191.5C 333.336,194.022 337.502,196.689 341.5,199.5C 342.833,200.167 343.833,201.167 344.5,202.5C 346.3,204.828 347.467,207.495 348,210.5C 352.538,213.142 353.705,216.976 351.5,222C 351.833,222.5 352.167,223 352.5,223.5C 353.736,222.754 355.07,222.421 356.5,222.5C 356.344,228.053 357.344,233.386 359.5,238.5C 359.176,240.569 358.342,240.902 357,239.5C 355.108,240.13 353.441,241.13 352,242.5C 349.463,241.823 347.463,242.823 346,245.5C 345.667,244.833 345.333,244.167 345,243.5C 338.246,245.192 331.412,246.692 324.5,248C 325.167,248.333 325.833,248.667 326.5,249C 325.391,249.638 324.225,250.138 323,250.5C 318.919,250.345 314.919,250.012 311,249.5C 308.453,250.92 305.953,252.42 303.5,254C 287.823,254.833 272.156,254.666 256.5,253.5C 255.33,251.745 253.663,250.745 251.5,250.5C 248.517,251.675 245.517,251.675 242.5,250.5C 240.5,251.167 238.5,251.833 236.5,252.5C 232.202,251.703 227.868,251.37 223.5,251.5C 217.996,250.635 212.329,249.968 206.5,249.5C 205.5,249.5 204.5,249.5 203.5,249.5C 201.924,248.717 200.591,247.55 199.5,246C 188.821,243.797 178.154,241.464 167.5,239C 161.16,236.632 154.827,234.132 148.5,231.5C 143.527,230.285 138.527,229.285 133.5,228.5C 133.167,228.5 132.833,228.5 132.5,228.5C 123.426,224.917 115.093,226.417 107.5,233C 105.866,233.494 104.199,233.66 102.5,233.5C 101.956,235.58 101.122,237.58 100,239.5C 98.9887,240.337 97.8221,240.67 96.5,240.5C 94.9518,246.718 96.9518,251.051 102.5,253.5C 108.184,257.959 114.518,261.292 121.5,263.5C 114.01,269.792 106.01,275.625 97.5,281C 94.5682,281.953 91.5682,282.453 88.5,282.5C 87.1667,282.167 85.8333,281.833 84.5,281.5C 82.3926,280.532 80.0593,280.198 77.5,280.5C 77.7135,282.144 77.3802,283.644 76.5,285C 62.6368,294.696 48.6368,304.196 34.5,313.5C 28.0049,311.082 21.6715,308.415 15.5,305.5C 14.5084,305.672 13.8417,305.338 13.5,304.5C 10.0994,301.365 7.43271,297.698 5.5,293.5C 5.16667,292.167 4.83333,290.833 4.5,289.5C 5.00829,284.784 5.84162,280.118 7,275.5C 7.31501,260.826 7.81501,246.159 8.5,231.5C 8.31215,226.038 7.64549,220.705 6.5,215.5C 7.75649,204.052 7.75649,192.885 6.5,182C 8.79939,177.637 9.96605,173.137 10,168.5C 10.935,165.898 12.7683,164.398 15.5,164C 15.1667,163.667 14.8333,163.333 14.5,163C 16.4812,162.395 16.8146,161.395 15.5,160C 16.1905,158.933 16.6905,157.766 17,156.5C 17.5885,158.863 19.0885,159.863 21.5,159.5C 21.9668,157.289 22.9668,155.289 24.5,153.5C 25.5395,146.879 28.0395,140.879 32,135.5C 32.7581,133.231 32.5914,131.064 31.5,129C 33.6175,128.74 35.2842,127.74 36.5,126C 35.2068,125.51 33.8734,125.343 32.5,125.5C 32.5,124.5 32.5,123.5 32.5,122.5C 33.5,122.5 34.5,122.5 35.5,122.5C 35.3505,121.448 35.5172,120.448 36,119.5C 38.0396,117.63 39.8729,115.63 41.5,113.5C 44.6839,112.357 48.0173,111.691 51.5,111.5C 51.2945,114.87 49.9611,117.703 47.5,120C 48.6642,121.994 49.3308,124.161 49.5,126.5C 48.0076,131.9 48.1743,137.233 50,142.5C 52.9903,138.74 54.1569,134.407 53.5,129.5C 53.5,128.833 53.5,128.167 53.5,127.5C 55.6678,118.168 58.1678,108.835 61,99.5C 65.6538,96.0773 68.1538,91.4106 68.5,85.5C 69.8734,85.6567 71.2068,85.49 72.5,85C 73.5418,83.082 74.7085,81.2487 76,79.5C 74.822,76.3831 74.4886,73.0497 75,69.5C 76,68.1667 77,68.1667 78,69.5C 78.3333,67.5 78.6667,65.5 79,63.5C 81.4603,62.245 82.627,60.245 82.5,57.5C 88.4666,48.8401 95.8,41.5068 104.5,35.5C 108.906,33.4642 113.573,32.2975 118.5,32C 119.09,30.4905 119.756,28.9905 120.5,27.5C 125.981,24.1858 131.981,22.5191 138.5,22.5C 145.204,23.035 151.871,23.7017 158.5,24.5C 159.086,24.2907 159.586,23.9574 160,23.5C 165.569,25.3705 171.069,27.3705 176.5,29.5C 179.166,28.2622 181.832,28.2622 184.5,29.5C 183.371,31.5294 183.871,31.8627 186,30.5C 190.06,34.1036 194.894,35.9369 200.5,36C 205.862,38.5341 210.529,42.0341 214.5,46.5 Z"/></g>
<g><path style="opacity:0.01" fill="#999bad" d="M 292.5,25.5 C 295.518,25.3354 298.518,25.502 301.5,26C 299.942,26.21 298.609,26.71 297.5,27.5C 295.694,26.9759 294.028,26.3092 292.5,25.5 Z"/></g>
<g><path style="opacity:1" fill="#1d251e" d="M 292.5,25.5 C 294.028,26.3092 295.694,26.9759 297.5,27.5C 315.253,37.6277 325.586,52.9611 328.5,73.5C 342.384,77.1891 354.551,83.8558 365,93.5C 364.621,95.075 364.788,96.575 365.5,98C 369.873,99.7131 373.707,102.213 377,105.5C 378.127,108.377 378.794,111.377 379,114.5C 381.628,116.126 383.961,118.126 386,120.5C 386.145,128.108 386.145,135.775 386,143.5C 384.26,144.716 383.26,146.382 383,148.5C 382.667,148.167 382.333,147.833 382,147.5C 381.097,148.701 379.931,149.535 378.5,150C 379.602,152.401 379.769,154.901 379,157.5C 374.722,160.107 370.222,162.274 365.5,164C 363.666,168.005 361.333,171.672 358.5,175C 351.573,180.423 344.24,185.256 336.5,189.5C 343.225,196.055 349.391,203.055 355,210.5C 359.956,219.201 362.79,228.535 363.5,238.5C 362.833,239.5 362.167,240.5 361.5,241.5C 360.988,226.153 355.322,213.153 344.5,202.5C 343.833,201.167 342.833,200.167 341.5,199.5C 338.833,196.167 335.833,193.167 332.5,190.5C 332.557,189.391 332.89,188.391 333.5,187.5C 337.208,185.43 340.875,183.43 344.5,181.5C 345.5,181.167 346.167,180.5 346.5,179.5C 354.347,176.485 359.681,170.985 362.5,163C 367.443,160.612 372.276,158.112 377,155.5C 377.915,153.08 377.082,151.747 374.5,151.5C 369.31,153.343 363.976,154.343 358.5,154.5C 358.213,150.983 358.213,147.316 358.5,143.5C 359.477,146.287 359.81,149.287 359.5,152.5C 370.188,152.904 378.688,148.904 385,140.5C 385.667,138.5 385.667,136.5 385,134.5C 383.561,132.725 382.561,130.725 382,128.5C 377.003,123.929 371.503,120.263 365.5,117.5C 366.492,117.672 367.158,117.338 367.5,116.5C 372.573,119.12 377.407,122.12 382,125.5C 383.946,125.237 384.612,124.237 384,122.5C 381.584,119.577 378.75,117.243 375.5,115.5C 375.833,114.833 376.167,114.167 376.5,113.5C 376.559,109.452 374.892,106.285 371.5,104C 368.029,101.928 364.362,100.428 360.5,99.5C 360.833,98.8333 361.167,98.1667 361.5,97.5C 362.573,96.7494 362.74,95.7494 362,94.5C 355.142,88.1559 347.308,83.4892 338.5,80.5C 338.158,79.6618 337.492,79.3284 336.5,79.5C 331.911,77.125 326.911,76.125 321.5,76.5C 322.833,75.8333 324.167,75.1667 325.5,74.5C 324.053,62.287 319.387,51.6203 311.5,42.5C 305.344,33.9131 297.01,28.5797 286.5,26.5C 269.165,22.7501 252.499,24.7501 236.5,32.5C 228.687,34.8629 221.687,38.5295 215.5,43.5C 215.5,44.1667 215.167,44.5 214.5,44.5C 188.906,22.024 159.572,14.8573 126.5,23C 118.323,25.9151 110.99,30.0817 104.5,35.5C 95.8,41.5068 88.4666,48.8401 82.5,57.5C 65.672,77.8281 56.0053,101.161 53.5,127.5C 53.5,128.167 53.5,128.833 53.5,129.5C 52.834,132.358 52.1674,135.358 51.5,138.5C 51.1667,136.667 50.8333,134.833 50.5,133C 51.6019,124.453 52.9352,115.953 54.5,107.5C 49.5572,108.361 45.2238,110.361 41.5,113.5C 37.5977,115.893 34.0977,118.893 31,122.5C 19.0595,141.379 9.5595,161.379 2.5,182.5C 1.33568,217.998 1.16901,253.664 2,289.5C 2.94873,291.093 4.11539,292.426 5.5,293.5C 7.43271,297.698 10.0994,301.365 13.5,304.5C 12.8333,304.5 12.1667,304.5 11.5,304.5C 10.8333,303.167 9.83333,302.167 8.5,301.5C 8.16667,300.5 7.5,299.833 6.5,299.5C 4.51789,296.19 2.18455,293.19 -0.5,290.5C -0.5,254.167 -0.5,217.833 -0.5,181.5C 7.77989,159.94 17.9466,139.273 30,119.5C 36.3556,111.571 44.5223,106.571 54.5,104.5C 63.0067,78.1855 77.3401,55.6855 97.5,37C 126.471,14.1911 157.805,10.5244 191.5,26C 199.538,30.0451 207.038,34.8784 214,40.5C 233.49,27.993 254.49,21.6597 277,21.5C 282.421,22.3127 287.588,23.646 292.5,25.5 Z"/></g>
<g><path style="opacity:1" fill="#4a4a4a" d="M 297.5,137.5 C 297.625,143.044 297.625,148.378 297.5,153.5C 296.167,148.167 296.167,142.833 297.5,137.5 Z"/></g>
<g><path style="opacity:1" fill="#162014" d="M 147.5,132.5 C 151.64,131.956 152.307,132.956 149.5,135.5C 143.916,137.191 138.583,139.358 133.5,142C 146.742,151.787 161.409,158.62 177.5,162.5C 178.833,163.167 180.167,163.833 181.5,164.5C 174.297,163.616 167.297,161.949 160.5,159.5C 149.627,154.263 139.293,148.263 129.5,141.5C 130.448,140.022 131.781,139.022 133.5,138.5C 138.22,136.623 142.887,134.623 147.5,132.5 Z"/></g>
<g><path style="opacity:1" fill="#51743f" d="M 131.5,126.5 C 130.737,127.268 129.737,127.768 128.5,128C 121.833,128.333 115.167,128.667 108.5,129C 106.86,131.776 107.527,133.776 110.5,135C 119.13,136.368 127.797,136.702 136.5,136C 139.027,134.139 141.194,131.973 143,129.5C 146.112,130.573 149.279,130.573 152.5,129.5C 151.087,130.935 149.42,131.935 147.5,132.5C 142.887,134.623 138.22,136.623 133.5,138.5C 125.122,138.184 116.788,137.351 108.5,136C 106.32,133.582 105.987,130.916 107.5,128C 115.525,127.699 123.525,127.199 131.5,126.5 Z"/></g>
<g><path style="opacity:1" fill="#747b74" d="M 273.5,126.5 C 270.872,128.488 268.205,130.488 265.5,132.5C 266.908,129.1 269.575,127.1 273.5,126.5 Z"/></g>
<g><path style="opacity:1" fill="#f6f7f5" d="M 186.5,119.5 C 181.055,123.028 177.555,128.028 176,134.5C 175.333,141.167 175.333,147.833 176,154.5C 177.467,157.266 179.3,159.766 181.5,162C 180.207,162.49 178.873,162.657 177.5,162.5C 161.409,158.62 146.742,151.787 133.5,142C 138.583,139.358 143.916,137.191 149.5,135.5C 152.005,133.285 155.005,132.119 158.5,132C 160.091,129.244 162.424,127.411 165.5,126.5C 170.622,124.645 175.622,122.645 180.5,120.5C 182.435,119.85 184.435,119.517 186.5,119.5 Z"/></g>
<g><path style="opacity:1" fill="#939a91" d="M 279.5,123.5 C 278.7,125.741 277.034,126.741 274.5,126.5C 274.5,126.167 274.5,125.833 274.5,125.5C 276.167,124.833 277.833,124.167 279.5,123.5 Z"/></g>
<g><path style="opacity:1" fill="#fafbf9" d="M 304.5,120.5 C 299.726,125.062 297.392,130.729 297.5,137.5C 296.167,142.833 296.167,148.167 297.5,153.5C 297.5,154.167 297.5,154.833 297.5,155.5C 297.414,156.496 297.748,157.329 298.5,158C 295.854,158.497 293.187,158.664 290.5,158.5C 280.444,157.921 270.611,156.254 261,153.5C 260.15,151.99 259.317,150.49 258.5,149C 261.215,144.188 262.715,139.021 263,133.5C 263.671,132.748 264.504,132.414 265.5,132.5C 268.205,130.488 270.872,128.488 273.5,126.5C 273.833,126.5 274.167,126.5 274.5,126.5C 277.034,126.741 278.7,125.741 279.5,123.5C 283.532,122.918 287.199,121.584 290.5,119.5C 293.833,118.3 297.167,118.3 300.5,119.5C 301.165,118.487 302.332,117.487 304,116.5C 304.5,116.667 305,116.833 305.5,117C 304.663,118.011 304.33,119.178 304.5,120.5 Z"/></g>
<g><path style="opacity:1" fill="#263621" d="M 195.5,113.5 C 198.5,113.5 201.5,113.5 204.5,113.5C 199.938,114.183 195.272,115.017 190.5,116C 194.449,116.807 194.449,117.307 190.5,117.5C 186.655,117.288 183.321,118.288 180.5,120.5C 175.622,122.645 170.622,124.645 165.5,126.5C 162.424,127.411 160.091,129.244 158.5,132C 155.005,132.119 152.005,133.285 149.5,135.5C 152.307,132.956 151.64,131.956 147.5,132.5C 149.42,131.935 151.087,130.935 152.5,129.5C 165.991,122.221 180.324,116.888 195.5,113.5 Z"/></g>
<g><path style="opacity:1" fill="#f7f8f6" d="M 340.5,112.5 C 349.204,112.501 357.537,114.168 365.5,117.5C 371.503,120.263 377.003,123.929 382,128.5C 382.561,130.725 383.561,132.725 385,134.5C 385.667,136.5 385.667,138.5 385,140.5C 378.688,148.904 370.188,152.904 359.5,152.5C 359.81,149.287 359.477,146.287 358.5,143.5C 358.457,132.869 354.79,123.702 347.5,116C 346.255,115.209 344.922,114.709 343.5,114.5C 342.5,113.833 341.5,113.167 340.5,112.5 Z"/></g>
<g><path style="opacity:1" fill="#788472" d="M 190.5,117.5 C 189.486,118.674 188.153,119.34 186.5,119.5C 184.435,119.517 182.435,119.85 180.5,120.5C 183.321,118.288 186.655,117.288 190.5,117.5 Z"/></g>
<g><path style="opacity:1" fill="#c0c6bb" d="M 313.5,113.5 C 314.167,113.5 314.5,113.833 314.5,114.5C 310.531,115.483 307.198,117.483 304.5,120.5C 304.33,119.178 304.663,118.011 305.5,117C 305,116.833 304.5,116.667 304,116.5C 302.332,117.487 301.165,118.487 300.5,119.5C 297.167,118.3 293.833,118.3 290.5,119.5C 290.611,118.883 290.944,118.383 291.5,118C 298.722,115.86 306.055,114.36 313.5,113.5 Z"/></g>
<g><path style="opacity:1" fill="#f8f9f6" d="M 229.5,114.5 C 239.252,115.438 248.585,117.938 257.5,122C 260.62,124.408 261.953,127.574 261.5,131.5C 260.721,137.34 259.221,143.007 257,148.5C 252.788,151.19 248.288,153.19 243.5,154.5C 242.127,154.657 240.793,154.49 239.5,154C 241.809,141.588 238.809,130.588 230.5,121C 226.741,119.121 223.075,117.287 219.5,115.5C 222.833,115.167 226.167,114.833 229.5,114.5 Z"/></g>
<g><path style="opacity:1" fill="#5b8549" d="M 53.5,129.5 C 54.1569,134.407 52.9903,138.74 50,142.5C 48.1743,137.233 48.0076,131.9 49.5,126.5C 49.3308,124.161 48.6642,121.994 47.5,120C 49.9611,117.703 51.2945,114.87 51.5,111.5C 48.0173,111.691 44.6839,112.357 41.5,113.5C 45.2238,110.361 49.5572,108.361 54.5,107.5C 52.9352,115.953 51.6019,124.453 50.5,133C 50.8333,134.833 51.1667,136.667 51.5,138.5C 52.1674,135.358 52.834,132.358 53.5,129.5 Z"/></g>
<g><path style="opacity:1" fill="#030403" d="M 204.5,113.5 C 205.5,113.5 206.5,113.5 207.5,113.5C 211.371,113.185 215.038,113.518 218.5,114.5C 216.15,115.11 216.483,115.444 219.5,115.5C 223.075,117.287 226.741,119.121 230.5,121C 238.809,130.588 241.809,141.588 239.5,154C 240.793,154.49 242.127,154.657 243.5,154.5C 243.833,155.167 244.167,155.833 244.5,156.5C 236.415,159.709 228.082,162.042 219.5,163.5C 206.851,164.322 194.185,164.655 181.5,164.5C 180.167,163.833 178.833,163.167 177.5,162.5C 178.873,162.657 180.207,162.49 181.5,162C 179.3,159.766 177.467,157.266 176,154.5C 175.333,147.833 175.333,141.167 176,134.5C 177.555,128.028 181.055,123.028 186.5,119.5C 188.153,119.34 189.486,118.674 190.5,117.5C 194.449,117.307 194.449,116.807 190.5,116C 195.272,115.017 199.938,114.183 204.5,113.5 Z"/></g>
<g><path style="opacity:1" fill="#dfdfdf" d="M 197.5,139.5 C 202.385,141.286 202.552,143.286 198,145.5C 193.61,143.84 193.444,141.84 197.5,139.5 Z"/></g>
<g><path style="opacity:1" fill="#f2efef" d="M 215.5,129.5 C 225.302,132.176 225.968,136.342 217.5,142C 211.827,141.127 209.16,137.627 209.5,131.5C 211.786,131.405 213.786,130.738 215.5,129.5 Z"/></g>
<g><path style="opacity:1" fill="#ebebea" d="M 196.5,120.5 C 202.673,123.204 203.007,126.538 197.5,130.5C 191.433,127.402 191.1,124.068 196.5,120.5 Z"/></g>
<g><path style="opacity:1" fill="#040504" d="M 343.5,114.5 C 344.922,114.709 346.255,115.209 347.5,116C 354.79,123.702 358.457,132.869 358.5,143.5C 358.213,147.316 358.213,150.983 358.5,154.5C 356.046,155.621 353.379,156.454 350.5,157C 340.852,158.386 331.186,159.553 321.5,160.5C 312.651,160.826 303.984,160.493 295.5,159.5C 300.997,159.781 301.664,158.447 297.5,155.5C 297.5,154.833 297.5,154.167 297.5,153.5C 297.625,148.378 297.625,143.044 297.5,137.5C 297.392,130.729 299.726,125.062 304.5,120.5C 307.198,117.483 310.531,115.483 314.5,114.5C 324.127,112.203 333.794,112.203 343.5,114.5 Z"/></g>
<g><path style="opacity:1" fill="#dfdfdf" d="M 318.5,148.5 C 322.35,148.701 323.35,150.534 321.5,154C 316.664,154.025 315.664,152.192 318.5,148.5 Z"/></g>
<g><path style="opacity:1" fill="#dedede" d="M 315.5,137.5 C 319.35,137.701 320.35,139.534 318.5,143C 313.664,143.025 312.664,141.192 315.5,137.5 Z"/></g>
<g><path style="opacity:1" fill="#f1f1f1" d="M 335.5,129.5 C 341.267,130.423 342.767,133.423 340,138.5C 335.212,141.531 332.045,140.198 330.5,134.5C 330.667,133.833 330.833,133.167 331,132.5C 332.652,131.601 334.152,130.601 335.5,129.5 Z"/></g>
<g><path style="opacity:1" fill="#e8e9e9" d="M 318.5,119.5 C 323.764,119.417 325.431,121.75 323.5,126.5C 315.691,128.05 314.024,125.716 318.5,119.5 Z"/></g>
<g><path style="opacity:1" fill="#22321c" d="M 207.5,113.5 C 225.425,110.873 242.758,113.373 259.5,121C 261.081,122.828 262.415,124.828 263.5,127C 264.448,127.483 265.448,127.649 266.5,127.5C 264.651,128.593 262.984,129.926 261.5,131.5C 261.953,127.574 260.62,124.408 257.5,122C 248.585,117.938 239.252,115.438 229.5,114.5C 225.935,113.213 222.268,113.213 218.5,114.5C 215.038,113.518 211.371,113.185 207.5,113.5 Z"/></g>
<g><path style="opacity:1" fill="#587c47" d="M 352.5,106.5 C 360.588,108.527 368.255,111.527 375.5,115.5C 378.75,117.243 381.584,119.577 384,122.5C 384.612,124.237 383.946,125.237 382,125.5C 377.407,122.12 372.573,119.12 367.5,116.5C 346.596,108.846 325.263,107.512 303.5,112.5C 306.335,111.482 309.002,109.982 311.5,108C 324.351,107.756 337.184,108.256 350,109.5C 351.833,109.333 353.667,109.167 355.5,109C 354.429,108.148 353.429,107.315 352.5,106.5 Z"/></g>
<g><path style="opacity:1" fill="#182614" d="M 367.5,116.5 C 367.158,117.338 366.492,117.672 365.5,117.5C 357.537,114.168 349.204,112.501 340.5,112.5C 331.249,109.529 322.249,109.863 313.5,113.5C 306.055,114.36 298.722,115.86 291.5,118C 290.944,118.383 290.611,118.883 290.5,119.5C 287.199,121.584 283.532,122.918 279.5,123.5C 277.833,124.167 276.167,124.833 274.5,125.5C 274.5,125.167 274.5,124.833 274.5,124.5C 280.335,122.041 286.002,119.041 291.5,115.5C 295.372,113.992 299.372,112.992 303.5,112.5C 325.263,107.512 346.596,108.846 367.5,116.5 Z"/></g>
<g><path style="opacity:1" fill="#8b8e89" d="M 340.5,112.5 C 341.5,113.167 342.5,113.833 343.5,114.5C 333.794,112.203 324.127,112.203 314.5,114.5C 314.5,113.833 314.167,113.5 313.5,113.5C 322.249,109.863 331.249,109.529 340.5,112.5 Z"/></g>
<g><path style="opacity:1" fill="#5a8c40" d="M 195.5,113.5 C 180.324,116.888 165.991,122.221 152.5,129.5C 149.279,130.573 146.112,130.573 143,129.5C 141.194,131.973 139.027,134.139 136.5,136C 127.797,136.702 119.13,136.368 110.5,135C 107.527,133.776 106.86,131.776 108.5,129C 115.167,128.667 121.833,128.333 128.5,128C 129.737,127.768 130.737,127.268 131.5,126.5C 139.721,123.391 147.721,119.724 155.5,115.5C 160.803,113.222 166.137,110.889 171.5,108.5C 174.196,110.44 175.529,109.773 175.5,106.5C 177.262,106.357 178.929,106.691 180.5,107.5C 183.833,104.833 187.167,104.833 190.5,107.5C 191.333,106.5 192.167,105.5 193,104.5C 196.333,105.833 199.667,105.833 203,104.5C 203.333,105.167 203.667,105.833 204,106.5C 204.667,105.167 205.333,105.167 206,106.5C 206.777,104.785 208.11,103.785 210,103.5C 216.053,105.044 222.22,105.877 228.5,106C 229.167,106.333 229.833,106.667 230.5,107C 227.692,107.019 225.359,108.019 223.5,110C 214.833,110.333 206.167,110.667 197.5,111C 196.244,111.417 195.577,112.25 195.5,113.5 Z"/></g>
<g><path style="opacity:1" fill="#5b8844" d="M 250.5,110.5 C 251.655,112.825 253.655,113.992 256.5,114C 257.667,114.167 258.833,114.333 260,114.5C 261.681,114.392 262.848,113.725 263.5,112.5C 285.796,105.021 308.796,101.855 332.5,103C 339.211,104.005 345.877,105.171 352.5,106.5C 353.429,107.315 354.429,108.148 355.5,109C 353.667,109.167 351.833,109.333 350,109.5C 337.184,108.256 324.351,107.756 311.5,108C 309.002,109.982 306.335,111.482 303.5,112.5C 299.372,112.992 295.372,113.992 291.5,115.5C 286.002,119.041 280.335,122.041 274.5,124.5C 271.447,124.572 268.781,125.572 266.5,127.5C 265.448,127.649 264.448,127.483 263.5,127C 262.415,124.828 261.081,122.828 259.5,121C 242.758,113.373 225.425,110.873 207.5,113.5C 206.5,113.5 205.5,113.5 204.5,113.5C 201.5,113.5 198.5,113.5 195.5,113.5C 195.577,112.25 196.244,111.417 197.5,111C 206.167,110.667 214.833,110.333 223.5,110C 225.359,108.019 227.692,107.019 230.5,107C 229.833,106.667 229.167,106.333 228.5,106C 222.22,105.877 216.053,105.044 210,103.5C 208.11,103.785 206.777,104.785 206,106.5C 205.333,105.167 204.667,105.167 204,106.5C 203.667,105.833 203.333,105.167 203,104.5C 199.667,105.833 196.333,105.833 193,104.5C 192.167,105.5 191.333,106.5 190.5,107.5C 187.167,104.833 183.833,104.833 180.5,107.5C 178.929,106.691 177.262,106.357 175.5,106.5C 175.529,109.773 174.196,110.44 171.5,108.5C 166.137,110.889 160.803,113.222 155.5,115.5C 168.943,105.853 184.11,100.853 201,100.5C 218.291,100.241 234.791,103.574 250.5,110.5 Z"/></g>
<g><path style="opacity:1" fill="#a3aa9e" d="M 229.5,114.5 C 226.167,114.833 222.833,115.167 219.5,115.5C 216.483,115.444 216.15,115.11 218.5,114.5C 222.268,113.213 225.935,113.213 229.5,114.5 Z"/></g>
<g><path style="opacity:1" fill="#0a1e05" d="M 308.5,100.5 C 314.167,100.5 319.833,100.5 325.5,100.5C 343.349,101.336 360.349,105.669 376.5,113.5C 376.167,114.167 375.833,114.833 375.5,115.5C 368.255,111.527 360.588,108.527 352.5,106.5C 345.877,105.171 339.211,104.005 332.5,103C 308.796,101.855 285.796,105.021 263.5,112.5C 261.46,113.519 259.46,113.519 257.5,112.5C 274.201,106.74 291.201,102.74 308.5,100.5 Z"/></g>
<g><path style="opacity:1" fill="#5a8248" d="M 360.5,99.5 C 364.362,100.428 368.029,101.928 371.5,104C 374.892,106.285 376.559,109.452 376.5,113.5C 360.349,105.669 343.349,101.336 325.5,100.5C 334.563,100.697 343.229,100.697 351.5,100.5C 349.453,98.9848 347.119,98.1515 344.5,98C 337.394,97.9263 330.394,97.2597 323.5,96C 311.367,95.0398 299.367,95.8731 287.5,98.5C 287.5,99.5 287.5,100.5 287.5,101.5C 294.49,101.001 301.49,100.668 308.5,100.5C 291.201,102.74 274.201,106.74 257.5,112.5C 259.46,113.519 261.46,113.519 263.5,112.5C 262.848,113.725 261.681,114.392 260,114.5C 258.833,114.333 257.667,114.167 256.5,114C 253.655,113.992 251.655,112.825 250.5,110.5C 251.15,110.804 251.817,111.137 252.5,111.5C 253.941,110.135 255.274,108.635 256.5,107C 290.28,93.1437 324.947,90.6437 360.5,99.5 Z"/></g>
<g><path style="opacity:1" fill="#5a8a43" d="M 179.5,101.5 C 174.834,102.987 170.168,104.82 165.5,107C 156.485,112.509 147.151,117.509 137.5,122C 127.731,125.043 117.731,126.21 107.5,125.5C 108.348,123.907 109.681,122.74 111.5,122C 114.572,121.544 117.572,121.544 120.5,122C 119.409,120.45 118.076,119.283 116.5,118.5C 124.787,117.095 132.787,114.762 140.5,111.5C 147.527,108.434 154.527,105.267 161.5,102C 161.167,101.667 160.833,101.333 160.5,101C 167.362,98.7261 174.362,96.7261 181.5,95C 185,94.5 188.5,94 192,93.5C 203.741,93.6284 215.574,93.6284 227.5,93.5C 227.33,94.8221 227.663,95.9887 228.5,97C 214.817,96.0004 201.15,96.3337 187.5,98C 184.524,98.7048 181.858,99.8714 179.5,101.5 Z"/></g>
<g><path style="opacity:1" fill="#5b8b44" d="M 325.5,100.5 C 319.833,100.5 314.167,100.5 308.5,100.5C 301.49,100.668 294.49,101.001 287.5,101.5C 287.5,100.5 287.5,99.5 287.5,98.5C 299.367,95.8731 311.367,95.0398 323.5,96C 330.394,97.2597 337.394,97.9263 344.5,98C 347.119,98.1515 349.453,98.9848 351.5,100.5C 343.229,100.697 334.563,100.697 325.5,100.5 Z"/></g>
<g><path style="opacity:1" fill="#5b8746" d="M 338.5,80.5 C 347.308,83.4892 355.142,88.1559 362,94.5C 362.74,95.7494 362.573,96.7494 361.5,97.5C 342.399,93.2333 323.066,91.3999 303.5,92C 287.255,94.1012 271.755,98.6012 257,105.5C 256.096,102.767 254.596,100.433 252.5,98.5C 259.814,100.818 266.148,99.3181 271.5,94C 273.235,93.3486 274.902,93.5153 276.5,94.5C 279.289,92.3887 281.956,90.8887 284.5,90C 286.112,89.2797 287.612,89.4464 289,90.5C 289.5,89.3333 290.333,88.5 291.5,88C 297.2,87.1848 302.7,87.6848 308,89.5C 316.857,88.2651 325.691,87.9318 334.5,88.5C 334.33,89.8221 334.663,90.9887 335.5,92C 341.674,92.9503 347.674,92.617 353.5,91C 350.28,88.8971 347.28,86.5638 344.5,84C 341.723,83.9386 339.723,82.772 338.5,80.5 Z"/></g>
<g><path style="opacity:1" fill="#557b44" d="M 229.5,83.5 C 232.335,86.1653 235.335,88.6653 238.5,91C 227.37,90.3228 216.203,89.8228 205,89.5C 197.816,89.6295 190.649,89.9628 183.5,90.5C 184.334,89.2521 185.667,88.5854 187.5,88.5C 200.871,87.0957 214.204,87.4291 227.5,89.5C 229.167,89.1667 230.833,88.8333 232.5,88.5C 231.048,87.0603 230.048,85.3936 229.5,83.5 Z"/></g>
<g><path style="opacity:1" fill="#5b8446" d="M 82.5,57.5 C 82.627,60.245 81.4603,62.245 79,63.5C 78.6667,65.5 78.3333,67.5 78,69.5C 77,68.1667 76,68.1667 75,69.5C 74.4886,73.0497 74.822,76.3831 76,79.5C 74.7085,81.2487 73.5418,83.082 72.5,85C 71.2068,85.49 69.8734,85.6567 68.5,85.5C 68.1538,91.4106 65.6538,96.0773 61,99.5C 58.1678,108.835 55.6678,118.168 53.5,127.5C 56.0053,101.161 65.672,77.8281 82.5,57.5 Z"/></g>
<g><path style="opacity:1" fill="#5b834a" d="M 321.5,76.5 C 326.911,76.125 331.911,77.125 336.5,79.5C 327.703,79.0052 319.036,77.6718 310.5,75.5C 305.865,78.203 301.532,77.703 297.5,74C 276.369,71.797 255.369,72.797 234.5,77C 232.745,77.7199 231.911,78.8866 232,80.5C 234.687,84.1938 238.187,86.6938 242.5,88C 246.369,91.0341 249.702,94.5341 252.5,98.5C 243.125,93.118 234.792,86.2847 227.5,78C 228.623,76.9563 229.956,76.2896 231.5,76C 261.696,69.8417 291.696,70.0084 321.5,76.5 Z"/></g>
<g><path style="opacity:1" fill="#598d3e" d="M 336.5,79.5 C 337.492,79.3284 338.158,79.6618 338.5,80.5C 339.723,82.772 341.723,83.9386 344.5,84C 347.28,86.5638 350.28,88.8971 353.5,91C 347.674,92.617 341.674,92.9503 335.5,92C 334.663,90.9887 334.33,89.8221 334.5,88.5C 325.691,87.9318 316.857,88.2651 308,89.5C 302.7,87.6848 297.2,87.1848 291.5,88C 290.333,88.5 289.5,89.3333 289,90.5C 287.612,89.4464 286.112,89.2797 284.5,90C 281.956,90.8887 279.289,92.3887 276.5,94.5C 274.902,93.5153 273.235,93.3486 271.5,94C 266.148,99.3181 259.814,100.818 252.5,98.5C 249.702,94.5341 246.369,91.0341 242.5,88C 238.187,86.6938 234.687,84.1938 232,80.5C 231.911,78.8866 232.745,77.7199 234.5,77C 255.369,72.797 276.369,71.797 297.5,74C 301.532,77.703 305.865,78.203 310.5,75.5C 319.036,77.6718 327.703,79.0052 336.5,79.5 Z"/></g>
<g><path style="opacity:1" fill="#0c1e07" d="M 215.5,43.5 C 221.973,52.4579 226.306,62.4579 228.5,73.5C 231.713,73.81 234.713,73.4767 237.5,72.5C 238.167,72.5 238.833,72.5 239.5,72.5C 244.77,71.3467 250.103,70.5133 255.5,70C 269.829,69.5001 284.163,69.3334 298.5,69.5C 300.019,70.4098 301.685,71.2432 303.5,72C 311.003,72.304 318.337,73.1373 325.5,74.5C 324.167,75.1667 322.833,75.8333 321.5,76.5C 291.696,70.0084 261.696,69.8417 231.5,76C 229.956,76.2896 228.623,76.9563 227.5,78C 234.792,86.2847 243.125,93.118 252.5,98.5C 254.596,100.433 256.096,102.767 257,105.5C 271.755,98.6012 287.255,94.1012 303.5,92C 323.066,91.3999 342.399,93.2333 361.5,97.5C 361.167,98.1667 360.833,98.8333 360.5,99.5C 324.947,90.6437 290.28,93.1437 256.5,107C 255.274,108.635 253.941,110.135 252.5,111.5C 251.817,111.137 251.15,110.804 250.5,110.5C 234.791,103.574 218.291,100.241 201,100.5C 184.11,100.853 168.943,105.853 155.5,115.5C 147.721,119.724 139.721,123.391 131.5,126.5C 123.525,127.199 115.525,127.699 107.5,128C 105.987,130.916 106.32,133.582 108.5,136C 116.788,137.351 125.122,138.184 133.5,138.5C 131.781,139.022 130.448,140.022 129.5,141.5C 123.168,139.069 116.502,138.069 109.5,138.5C 107.771,137.883 106.271,136.883 105,135.5C 103.863,131.537 104.697,128.204 107.5,125.5C 117.731,126.21 127.731,125.043 137.5,122C 147.151,117.509 156.485,112.509 165.5,107C 170.168,104.82 174.834,102.987 179.5,101.5C 198.237,97.415 216.904,97.915 235.5,103C 241.417,105.139 247.417,106.973 253.5,108.5C 253.662,106.473 253.495,104.473 253,102.5C 249.833,100 246.667,97.5 243.5,95C 220.14,90.4271 196.807,90.4271 173.5,95C 167.883,97.1539 162.216,99.1539 156.5,101C 151.273,104.772 145.939,108.272 140.5,111.5C 132.787,114.762 124.787,117.095 116.5,118.5C 116.577,117.25 117.244,116.417 118.5,116C 127.092,115.034 135.092,112.367 142.5,108C 154.695,98.9819 168.361,93.1486 183.5,90.5C 190.649,89.9628 197.816,89.6295 205,89.5C 216.203,89.8228 227.37,90.3228 238.5,91C 235.335,88.6653 232.335,86.1653 229.5,83.5C 227.363,80.027 224.363,77.6936 220.5,76.5C 191.18,55.9824 160.18,53.149 127.5,68C 124.593,69.6091 121.927,71.4424 119.5,73.5C 116.733,74.0507 114.4,75.3841 112.5,77.5C 111.289,76.7261 111.289,75.8928 112.5,75C 118.897,71.141 125.23,67.3076 131.5,63.5C 153.288,54.7446 175.288,54.2446 197.5,62C 207.307,66.3344 216.973,70.8344 226.5,75.5C 225.215,64.6271 221.215,54.9604 214.5,46.5C 214.5,45.8333 214.5,45.1667 214.5,44.5C 215.167,44.5 215.5,44.1667 215.5,43.5 Z"/></g>
<g><path style="opacity:1" fill="#5c8647" d="M 179.5,101.5 C 181.858,99.8714 184.524,98.7048 187.5,98C 201.15,96.3337 214.817,96.0004 228.5,97C 227.663,95.9887 227.33,94.8221 227.5,93.5C 215.574,93.6284 203.741,93.6284 192,93.5C 188.5,94 185,94.5 181.5,95C 174.362,96.7261 167.362,98.7261 160.5,101C 160.833,101.333 161.167,101.667 161.5,102C 154.527,105.267 147.527,108.434 140.5,111.5C 145.939,108.272 151.273,104.772 156.5,101C 162.216,99.1539 167.883,97.1539 173.5,95C 196.807,90.4271 220.14,90.4271 243.5,95C 246.667,97.5 249.833,100 253,102.5C 253.495,104.473 253.662,106.473 253.5,108.5C 247.417,106.973 241.417,105.139 235.5,103C 216.904,97.915 198.237,97.415 179.5,101.5 Z"/></g>
<g><path style="opacity:1" fill="#597e48" d="M 311.5,42.5 C 319.387,51.6203 324.053,62.287 325.5,74.5C 318.337,73.1373 311.003,72.304 303.5,72C 301.685,71.2432 300.019,70.4098 298.5,69.5C 306.606,69.8489 314.606,70.8489 322.5,72.5C 322.048,68.8371 321.548,65.1704 321,61.5C 319.275,58.326 317.942,54.9927 317,51.5C 315.667,49.5 314,47.8333 312,46.5C 311.51,45.2068 311.343,43.8734 311.5,42.5 Z"/></g>
<g><path style="opacity:1" fill="#5a8545" d="M 220.5,76.5 C 213.921,73.0426 207.254,69.8759 200.5,67C 197.671,65.4914 194.838,65.3247 192,66.5C 186.782,65.221 181.615,63.5543 176.5,61.5C 171.859,64.9403 167.193,65.107 162.5,62C 159.12,61.0623 156.12,61.729 153.5,64C 148.116,63.6407 143.783,65.474 140.5,69.5C 139.5,68.1667 138.5,68.1667 137.5,69.5C 136.833,68.8333 136.167,68.1667 135.5,67.5C 133.224,68.2132 130.891,68.7132 128.5,69C 126.027,71.5469 123.027,73.0469 119.5,73.5C 121.927,71.4424 124.593,69.6091 127.5,68C 160.18,53.149 191.18,55.9824 220.5,76.5 Z"/></g>
<g><path style="opacity:1" fill="#5a8746" d="M 214.5,46.5 C 221.215,54.9604 225.215,64.6271 226.5,75.5C 216.973,70.8344 207.307,66.3344 197.5,62C 175.288,54.2446 153.288,54.7446 131.5,63.5C 136.016,60.922 140.683,58.422 145.5,56C 146.893,54.8289 147.727,53.3289 148,51.5C 148.725,52.0585 149.558,52.3918 150.5,52.5C 152.349,50.8258 154.516,49.8258 157,49.5C 164.576,51.294 172.076,53.4607 179.5,56C 187.54,57.1178 195.54,58.4512 203.5,60C 210.036,67.1245 215.703,66.7912 220.5,59C 217.595,55.3548 215.595,51.1882 214.5,46.5 Z"/></g>
<g><path style="opacity:1" fill="#5b8a43" d="M 286.5,26.5 C 297.01,28.5797 305.344,33.9131 311.5,42.5C 311.343,43.8734 311.51,45.2068 312,46.5C 314,47.8333 315.667,49.5 317,51.5C 317.942,54.9927 319.275,58.326 321,61.5C 321.548,65.1704 322.048,68.8371 322.5,72.5C 314.606,70.8489 306.606,69.8489 298.5,69.5C 284.163,69.3334 269.829,69.5001 255.5,70C 250.103,70.5133 244.77,71.3467 239.5,72.5C 239.97,71.3065 240.97,70.6399 242.5,70.5C 245.5,70 248.5,69.5 251.5,69C 252.337,67.9887 252.67,66.8221 252.5,65.5C 249.927,65.8515 247.594,65.3515 245.5,64C 248.036,63.6608 250.536,63.1608 253,62.5C 254.626,63.2887 256.126,64.2887 257.5,65.5C 258.167,65.1667 258.833,64.8333 259.5,64.5C 262.505,66.8942 265.339,66.8942 268,64.5C 269.067,65.1905 270.234,65.6905 271.5,66C 279.026,66.2174 286.193,66.3841 293,66.5C 294.734,65.7511 296.567,65.2511 298.5,65C 297.5,64.6667 296.5,64.3333 295.5,64C 297.764,63.7638 299.931,63.2638 302,62.5C 302.883,65.1001 304.383,67.2668 306.5,69C 309.68,70.0361 312.18,69.2028 314,66.5C 316.041,67.4231 318.208,67.7564 320.5,67.5C 320.507,60.5007 318.507,59.834 314.5,65.5C 313.944,63.491 312.611,61.491 310.5,59.5C 309.221,54.8138 309.221,50.1471 310.5,45.5C 309.723,43.4615 308.557,42.7948 307,43.5C 305.667,42.8333 304.333,42.1667 303,41.5C 303.487,39.9562 303.987,38.2895 304.5,36.5C 300.923,36.7949 297.757,35.7949 295,33.5C 293.681,35.2495 293.181,37.2495 293.5,39.5C 296.084,39.5688 298.084,40.7355 299.5,43C 297.167,43.6667 294.833,43.6667 292.5,43C 292.833,42.6667 293.167,42.3333 293.5,42C 289.595,38.4843 288.929,35.3176 291.5,32.5C 285.078,29.9003 278.412,29.0669 271.5,30C 271.833,30.3333 272.167,30.6667 272.5,31C 271.667,31.1667 270.833,31.3333 270,31.5C 265.659,29.6843 261.159,29.1843 256.5,30C 253.983,32.2508 250.983,33.0841 247.5,32.5C 247.5,33.5 247.5,34.5 247.5,35.5C 241.345,35.9595 235.345,36.4595 229.5,37C 231.662,38.4933 233.662,40.16 235.5,42C 234.01,43.772 232.343,43.9387 230.5,42.5C 229.494,42.9377 229.494,43.6043 230.5,44.5C 229.833,44.8333 229.167,45.1667 228.5,45.5C 226.865,44.9537 225.199,44.6204 223.5,44.5C 223.567,46.4008 223.233,48.2341 222.5,50C 224.606,51.7004 226.106,53.867 227,56.5C 228.546,61.7297 229.38,67.0631 229.5,72.5C 232.167,72.5 234.833,72.5 237.5,72.5C 234.713,73.4767 231.713,73.81 228.5,73.5C 226.306,62.4579 221.973,52.4579 215.5,43.5C 221.687,38.5295 228.687,34.8629 236.5,32.5C 243.045,31.4467 249.378,29.6133 255.5,27C 265.828,26.5002 276.161,26.3335 286.5,26.5 Z"/></g>
<g><path style="opacity:1" fill="#598d3d" d="M 239.5,72.5 C 238.833,72.5 238.167,72.5 237.5,72.5C 234.833,72.5 232.167,72.5 229.5,72.5C 229.38,67.0631 228.546,61.7297 227,56.5C 226.106,53.867 224.606,51.7004 222.5,50C 223.233,48.2341 223.567,46.4008 223.5,44.5C 225.199,44.6204 226.865,44.9537 228.5,45.5C 229.167,45.1667 229.833,44.8333 230.5,44.5C 229.494,43.6043 229.494,42.9377 230.5,42.5C 232.343,43.9387 234.01,43.772 235.5,42C 233.662,40.16 231.662,38.4933 229.5,37C 235.345,36.4595 241.345,35.9595 247.5,35.5C 247.5,34.5 247.5,33.5 247.5,32.5C 250.983,33.0841 253.983,32.2508 256.5,30C 261.159,29.1843 265.659,29.6843 270,31.5C 270.833,31.3333 271.667,31.1667 272.5,31C 272.167,30.6667 271.833,30.3333 271.5,30C 278.412,29.0669 285.078,29.9003 291.5,32.5C 288.929,35.3176 289.595,38.4843 293.5,42C 293.167,42.3333 292.833,42.6667 292.5,43C 294.833,43.6667 297.167,43.6667 299.5,43C 298.084,40.7355 296.084,39.5688 293.5,39.5C 293.181,37.2495 293.681,35.2495 295,33.5C 297.757,35.7949 300.923,36.7949 304.5,36.5C 303.987,38.2895 303.487,39.9562 303,41.5C 304.333,42.1667 305.667,42.8333 307,43.5C 308.557,42.7948 309.723,43.4615 310.5,45.5C 309.221,50.1471 309.221,54.8138 310.5,59.5C 312.611,61.491 313.944,63.491 314.5,65.5C 318.507,59.834 320.507,60.5007 320.5,67.5C 318.208,67.7564 316.041,67.4231 314,66.5C 312.18,69.2028 309.68,70.0361 306.5,69C 304.383,67.2668 302.883,65.1001 302,62.5C 299.931,63.2638 297.764,63.7638 295.5,64C 296.5,64.3333 297.5,64.6667 298.5,65C 296.567,65.2511 294.734,65.7511 293,66.5C 286.193,66.3841 279.026,66.2174 271.5,66C 270.234,65.6905 269.067,65.1905 268,64.5C 265.339,66.8942 262.505,66.8942 259.5,64.5C 258.833,64.8333 258.167,65.1667 257.5,65.5C 256.126,64.2887 254.626,63.2887 253,62.5C 250.536,63.1608 248.036,63.6608 245.5,64C 247.594,65.3515 249.927,65.8515 252.5,65.5C 252.67,66.8221 252.337,67.9887 251.5,69C 248.5,69.5 245.5,70 242.5,70.5C 240.97,70.6399 239.97,71.3065 239.5,72.5 Z"/></g>
<g><path style="opacity:1" fill="#567747" d="M 286.5,26.5 C 276.161,26.3335 265.828,26.5002 255.5,27C 249.378,29.6133 243.045,31.4467 236.5,32.5C 252.499,24.7501 269.165,22.7501 286.5,26.5 Z"/></g>
<g><path style="opacity:1" fill="#5b8646" d="M 214.5,44.5 C 214.5,45.1667 214.5,45.8333 214.5,46.5C 210.529,42.0341 205.862,38.5341 200.5,36C 194.894,35.9369 190.06,34.1036 186,30.5C 183.871,31.8627 183.371,31.5294 184.5,29.5C 181.832,28.2622 179.166,28.2622 176.5,29.5C 171.069,27.3705 165.569,25.3705 160,23.5C 159.586,23.9574 159.086,24.2907 158.5,24.5C 151.871,23.7017 145.204,23.035 138.5,22.5C 131.981,22.5191 125.981,24.1858 120.5,27.5C 119.756,28.9905 119.09,30.4905 118.5,32C 113.573,32.2975 108.906,33.4642 104.5,35.5C 110.99,30.0817 118.323,25.9151 126.5,23C 159.572,14.8573 188.906,22.024 214.5,44.5 Z"/></g>
<g><path style="opacity:1" fill="#121b10" d="M 274.5,124.5 C 274.5,124.833 274.5,125.167 274.5,125.5C 274.5,125.833 274.5,126.167 274.5,126.5C 274.167,126.5 273.833,126.5 273.5,126.5C 269.575,127.1 266.908,129.1 265.5,132.5C 264.504,132.414 263.671,132.748 263,133.5C 262.715,139.021 261.215,144.188 258.5,149C 259.317,150.49 260.15,151.99 261,153.5C 270.611,156.254 280.444,157.921 290.5,158.5C 291.919,159.451 293.585,159.784 295.5,159.5C 303.984,160.493 312.651,160.826 321.5,160.5C 313.016,161.493 304.349,161.826 295.5,161.5C 294.5,161.5 293.5,161.5 292.5,161.5C 282.31,159.763 271.976,158.097 261.5,156.5C 260.883,156.611 260.383,156.944 260,157.5C 259.768,156.263 259.268,155.263 258.5,154.5C 258.582,152.748 257.749,151.748 256,151.5C 252.213,153.263 248.38,154.929 244.5,156.5C 244.167,155.833 243.833,155.167 243.5,154.5C 248.288,153.19 252.788,151.19 257,148.5C 259.221,143.007 260.721,137.34 261.5,131.5C 262.984,129.926 264.651,128.593 266.5,127.5C 268.781,125.572 271.447,124.572 274.5,124.5 Z"/></g>
<g><path style="opacity:1" fill="#5a8148" d="M 346.5,179.5 C 346.586,178.504 346.252,177.671 345.5,177C 347.345,175.872 349.345,175.372 351.5,175.5C 351.5,174.5 351.5,173.5 351.5,172.5C 352.93,172.579 354.264,172.246 355.5,171.5C 356.718,167.62 358.385,163.953 360.5,160.5C 363.93,161.742 365.263,160.409 364.5,156.5C 352.431,157.74 340.431,159.573 328.5,162C 317.326,162.826 306.326,162.659 295.5,161.5C 304.349,161.826 313.016,161.493 321.5,160.5C 331.186,159.553 340.852,158.386 350.5,157C 353.379,156.454 356.046,155.621 358.5,154.5C 363.976,154.343 369.31,153.343 374.5,151.5C 377.082,151.747 377.915,153.08 377,155.5C 372.276,158.112 367.443,160.612 362.5,163C 359.681,170.985 354.347,176.485 346.5,179.5 Z"/></g>
<g><path style="opacity:1" fill="#5c804b" d="M 261.5,156.5 C 271.976,158.097 282.31,159.763 292.5,161.5C 283.201,161.692 274.034,160.692 265,158.5C 264.167,158.667 263.333,158.833 262.5,159C 260.205,163.134 256.871,165.967 252.5,167.5C 256.204,164.433 259.204,160.766 261.5,156.5 Z"/></g>
<g><path style="opacity:1" fill="#6c706c" d="M 297.5,155.5 C 301.664,158.447 300.997,159.781 295.5,159.5C 293.585,159.784 291.919,159.451 290.5,158.5C 293.187,158.664 295.854,158.497 298.5,158C 297.748,157.329 297.414,156.496 297.5,155.5 Z"/></g>
<g><path style="opacity:1" fill="#598742" d="M 109.5,138.5 C 116.502,138.069 123.168,139.069 129.5,141.5C 139.293,148.263 149.627,154.263 160.5,159.5C 166.54,163.124 173.207,165.29 180.5,166C 192.167,166.667 203.833,166.667 215.5,166C 217.066,165.392 218.4,164.558 219.5,163.5C 228.082,162.042 236.415,159.709 244.5,156.5C 248.38,154.929 252.213,153.263 256,151.5C 257.749,151.748 258.582,152.748 258.5,154.5C 258.1,159.76 255.433,163.594 250.5,166C 242.126,168.01 233.792,170.344 225.5,173C 206.756,174.109 188.089,173.443 169.5,171C 163.736,169.099 158.07,167.266 152.5,165.5C 154.833,165.5 157.167,165.5 159.5,165.5C 159.528,163.418 158.861,161.584 157.5,160C 150.076,156.787 143.076,152.787 136.5,148C 135.207,147.51 133.873,147.343 132.5,147.5C 132.5,146.5 132.5,145.5 132.5,144.5C 130.284,144.725 128.617,143.892 127.5,142C 121.113,141.424 115.113,140.258 109.5,138.5 Z"/></g>
<g><path style="opacity:1" fill="#e5e5e5" d="M 198.5,154.5 C 200.199,154.34 201.866,154.506 203.5,155C 204.651,158.462 203.318,159.796 199.5,159C 197.218,157.916 196.884,156.416 198.5,154.5 Z"/></g>
<g><path style="opacity:1" fill="#0f250d" d="M 258.5,154.5 C 259.268,155.263 259.768,156.263 260,157.5C 260.383,156.944 260.883,156.611 261.5,156.5C 259.204,160.766 256.204,164.433 252.5,167.5C 244.062,169.36 235.728,171.86 227.5,175C 213.171,175.5 198.837,175.667 184.5,175.5C 166.477,173.381 149.477,168.047 133.5,159.5C 131.24,158.762 131.073,157.762 133,156.5C 139.176,160.171 145.676,163.171 152.5,165.5C 158.07,167.266 163.736,169.099 169.5,171C 188.089,173.443 206.756,174.109 225.5,173C 233.792,170.344 242.126,168.01 250.5,166C 255.433,163.594 258.1,159.76 258.5,154.5 Z"/></g>
<g><path style="opacity:1" fill="#5a7d4a" d="M 160.5,159.5 C 167.297,161.949 174.297,163.616 181.5,164.5C 194.185,164.655 206.851,164.322 219.5,163.5C 218.4,164.558 217.066,165.392 215.5,166C 203.833,166.667 192.167,166.667 180.5,166C 173.207,165.29 166.54,163.124 160.5,159.5 Z"/></g>
<g><path style="opacity:1" fill="#5d844a" d="M 252.5,167.5 C 251.657,169.173 250.324,170.34 248.5,171C 244.121,170.771 240.454,172.104 237.5,175C 238.711,176.113 238.711,177.28 237.5,178.5C 231.818,182.1 226.151,185.6 220.5,189C 219.207,189.49 217.873,189.657 216.5,189.5C 222.236,186.459 227.902,183.125 233.5,179.5C 233.167,179.167 232.833,178.833 232.5,178.5C 228.265,180.785 223.931,182.785 219.5,184.5C 222.139,182.424 224.806,180.258 227.5,178C 213.025,176.986 198.691,176.153 184.5,175.5C 198.837,175.667 213.171,175.5 227.5,175C 235.728,171.86 244.062,169.36 252.5,167.5 Z"/></g>
<g><path style="opacity:1" fill="#5a8a43" d="M 133.5,159.5 C 149.477,168.047 166.477,173.381 184.5,175.5C 198.691,176.153 213.025,176.986 227.5,178C 224.806,180.258 222.139,182.424 219.5,184.5C 216.537,186.786 213.204,188.619 209.5,190C 199.28,193.625 189.28,197.625 179.5,202C 180.833,202.667 182.167,202.667 183.5,202C 193.43,197.863 203.43,194.03 213.5,190.5C 210.63,192.8 207.296,194.634 203.5,196C 202.359,196.741 202.359,197.575 203.5,198.5C 201.535,199.292 199.535,199.959 197.5,200.5C 195.506,203.568 192.839,204.235 189.5,202.5C 188.751,204.012 187.584,205.012 186,205.5C 183.536,204.839 181.036,204.339 178.5,204C 177.5,201.909 178.167,200.243 180.5,199C 184.865,197.46 188.865,195.293 192.5,192.5C 192.167,191.833 191.833,191.167 191.5,190.5C 196.7,188.463 202.033,187.13 207.5,186.5C 207.5,185.167 207.5,183.833 207.5,182.5C 209.59,182.55 210.923,181.55 211.5,179.5C 211.167,178.5 210.5,177.833 209.5,177.5C 206.24,179.903 203.074,181.57 200,182.5C 199.667,181.833 199.333,181.167 199,180.5C 194.459,181.304 189.292,181.471 183.5,181C 180.833,180.667 178.167,180.333 175.5,180C 176.458,178.853 176.125,177.853 174.5,177C 170.833,176.667 167.167,176.333 163.5,176C 161.338,172.704 158.838,172.204 156,174.5C 153.695,172.07 150.862,171.07 147.5,171.5C 147.579,170.07 147.246,168.736 146.5,167.5C 141.102,166.411 136.769,163.744 133.5,159.5 Z"/></g>
<g><path style="opacity:1" fill="#0b1e06" d="M 216.5,189.5 C 215.391,189.557 214.391,189.89 213.5,190.5C 203.43,194.03 193.43,197.863 183.5,202C 182.167,202.667 180.833,202.667 179.5,202C 189.28,197.625 199.28,193.625 209.5,190C 213.204,188.619 216.537,186.786 219.5,184.5C 223.931,182.785 228.265,180.785 232.5,178.5C 232.833,178.833 233.167,179.167 233.5,179.5C 227.902,183.125 222.236,186.459 216.5,189.5 Z"/></g>
<g><path style="opacity:1" fill="#5c8249" d="M 266.5,185.5 C 276.687,189.927 286.687,194.927 296.5,200.5C 297.298,200.043 297.631,199.376 297.5,198.5C 299.048,198.821 299.715,199.821 299.5,201.5C 297.143,201.663 294.81,201.497 292.5,201C 289.192,196.875 284.859,194.709 279.5,194.5C 275.83,192.009 271.83,190.176 267.5,189C 266.167,188.333 265.167,187.333 264.5,186C 265.094,185.536 265.761,185.369 266.5,185.5 Z"/></g>
<g><path style="opacity:1" fill="#5b8b41" d="M 41.5,113.5 C 39.8729,115.63 38.0396,117.63 36,119.5C 35.5172,120.448 35.3505,121.448 35.5,122.5C 34.5,122.5 33.5,122.5 32.5,122.5C 32.5,123.5 32.5,124.5 32.5,125.5C 33.8734,125.343 35.2068,125.51 36.5,126C 35.2842,127.74 33.6175,128.74 31.5,129C 32.5914,131.064 32.7581,133.231 32,135.5C 28.0395,140.879 25.5395,146.879 24.5,153.5C 22.9668,155.289 21.9668,157.289 21.5,159.5C 19.0885,159.863 17.5885,158.863 17,156.5C 16.6905,157.766 16.1905,158.933 15.5,160C 16.8146,161.395 16.4812,162.395 14.5,163C 14.8333,163.333 15.1667,163.667 15.5,164C 12.7683,164.398 10.935,165.898 10,168.5C 9.96605,173.137 8.79939,177.637 6.5,182C 7.75649,192.885 7.75649,204.052 6.5,215.5C 7.64549,220.705 8.31215,226.038 8.5,231.5C 7.81501,246.159 7.31501,260.826 7,275.5C 5.84162,280.118 5.00829,284.784 4.5,289.5C 3.73209,288.737 3.23209,287.737 3,286.5C 2.50002,251.835 2.33335,217.168 2.5,182.5C 9.5595,161.379 19.0595,141.379 31,122.5C 34.0977,118.893 37.5977,115.893 41.5,113.5 Z"/></g>
<g><path style="opacity:1" fill="#5a7f49" d="M 344.5,181.5 C 340.875,183.43 337.208,185.43 333.5,187.5C 317.798,191.795 301.798,193.295 285.5,192C 279.508,189.999 273.842,187.499 268.5,184.5C 274.237,184.449 279.237,186.282 283.5,190C 292.5,190.667 301.5,190.667 310.5,190C 314.635,188.569 318.968,188.069 323.5,188.5C 323.5,187.167 323.5,185.833 323.5,184.5C 327.146,185.283 330.812,185.45 334.5,185C 337.572,183.142 340.905,181.976 344.5,181.5 Z"/></g>
<g><path style="opacity:1" fill="#091d04" d="M 268.5,184.5 C 273.842,187.499 279.508,189.999 285.5,192C 301.798,193.295 317.798,191.795 333.5,187.5C 332.89,188.391 332.557,189.391 332.5,190.5C 325.492,191.446 318.492,192.612 311.5,194C 304.833,194.333 298.167,194.667 291.5,195C 293.391,196.442 295.391,197.609 297.5,198.5C 297.631,199.376 297.298,200.043 296.5,200.5C 286.687,194.927 276.687,189.927 266.5,185.5C 266.842,184.662 267.508,184.328 268.5,184.5 Z"/></g>
<g><path style="opacity:1" fill="#5c864b" d="M 332.5,190.5 C 335.833,193.167 338.833,196.167 341.5,199.5C 337.502,196.689 333.336,194.022 329,191.5C 326.088,191.358 324.588,192.691 324.5,195.5C 320.832,195.75 317.332,195.75 314,195.5C 309.729,197.835 305.229,198.168 300.5,196.5C 298.97,196.64 297.97,197.307 297.5,198.5C 295.391,197.609 293.391,196.442 291.5,195C 298.167,194.667 304.833,194.333 311.5,194C 318.492,192.612 325.492,191.446 332.5,190.5 Z"/></g>
<g><path style="opacity:1" fill="#11260c" d="M 104.5,203.5 C 107.807,203.063 110.807,203.73 113.5,205.5C 109.204,206.328 104.871,206.828 100.5,207C 98.7536,207.471 97.087,208.138 95.5,209C 90.943,213.054 86.943,217.554 83.5,222.5C 83.1667,222.167 82.8333,221.833 82.5,221.5C 87.2419,212.07 94.5752,206.07 104.5,203.5 Z"/></g>
<g><path style="opacity:1" fill="#5d7d45" d="M 132.5,228.5 C 117.746,226.962 106.246,232.295 98,244.5C 97.0276,247.294 97.8609,249.294 100.5,250.5C 101.167,251.5 101.833,252.5 102.5,253.5C 96.9518,251.051 94.9518,246.718 96.5,240.5C 97.8221,240.67 98.9887,240.337 100,239.5C 101.122,237.58 101.956,235.58 102.5,233.5C 104.199,233.66 105.866,233.494 107.5,233C 115.093,226.417 123.426,224.917 132.5,228.5 Z"/></g>
<g><path style="opacity:1" fill="#8c5a38" d="M 155.5,238.5 C 148.606,238.272 142.106,236.606 136,233.5C 130.602,236.517 125.435,236.517 120.5,233.5C 117.796,236.351 114.463,237.851 110.5,238C 109,240.167 107.167,242 105,243.5C 104.689,244.742 105.189,245.742 106.5,246.5C 104.96,246.684 103.627,247.851 102.5,250C 102.645,250.772 102.978,251.439 103.5,252C 107.654,253.381 111.654,254.881 115.5,256.5C 115.281,257.675 115.614,258.675 116.5,259.5C 118.996,260.251 121.33,261.251 123.5,262.5C 123.158,263.338 122.492,263.672 121.5,263.5C 114.518,261.292 108.184,257.959 102.5,253.5C 101.833,252.5 101.167,251.5 100.5,250.5C 98.9955,247.499 99.4955,244.833 102,242.5C 111.731,230.726 123.898,227.226 138.5,232C 144.265,234.228 149.932,236.395 155.5,238.5 Z"/></g>
<g><path style="opacity:1" fill="#587741" d="M 133.5,228.5 C 138.527,229.285 143.527,230.285 148.5,231.5C 154.827,234.132 161.16,236.632 167.5,239C 178.154,241.464 188.821,243.797 199.5,246C 200.591,247.55 201.924,248.717 203.5,249.5C 179.415,244.65 156.082,237.65 133.5,228.5 Z"/></g>
<g><path style="opacity:1" fill="#82553a" d="M 155.5,238.5 C 175.555,245.077 195.889,250.411 216.5,254.5C 206.422,253.49 196.422,251.99 186.5,250C 176.951,246.762 167.284,243.595 157.5,240.5C 156.287,240.253 155.62,239.586 155.5,238.5 Z"/></g>
<g><path style="opacity:1" fill="#5d8944" d="M 344.5,202.5 C 355.322,213.153 360.988,226.153 361.5,241.5C 344.692,249.398 327.025,254.398 308.5,256.5C 292.838,257.006 277.171,257.339 261.5,257.5C 248.845,255.427 236.178,253.427 223.5,251.5C 227.868,251.37 232.202,251.703 236.5,252.5C 238.5,251.833 240.5,251.167 242.5,250.5C 245.517,251.675 248.517,251.675 251.5,250.5C 253.663,250.745 255.33,251.745 256.5,253.5C 272.156,254.666 287.823,254.833 303.5,254C 305.953,252.42 308.453,250.92 311,249.5C 314.919,250.012 318.919,250.345 323,250.5C 324.225,250.138 325.391,249.638 326.5,249C 325.833,248.667 325.167,248.333 324.5,248C 331.412,246.692 338.246,245.192 345,243.5C 345.333,244.167 345.667,244.833 346,245.5C 347.463,242.823 349.463,241.823 352,242.5C 353.441,241.13 355.108,240.13 357,239.5C 358.342,240.902 359.176,240.569 359.5,238.5C 357.344,233.386 356.344,228.053 356.5,222.5C 355.07,222.421 353.736,222.754 352.5,223.5C 352.167,223 351.833,222.5 351.5,222C 353.705,216.976 352.538,213.142 348,210.5C 347.467,207.495 346.3,204.828 344.5,202.5 Z"/></g>
<g><path style="opacity:1" fill="#925c3f" d="M 361.5,243.5 C 367.109,243.109 369.776,245.776 369.5,251.5C 369.126,256.26 366.793,259.593 362.5,261.5C 362.739,259.533 362.406,257.699 361.5,256C 366.805,255.295 367.805,252.795 364.5,248.5C 366.94,246.194 366.274,244.86 362.5,244.5C 354.275,248.724 345.608,251.724 336.5,253.5C 344.899,250.472 353.232,247.139 361.5,243.5 Z"/></g>
<g><path style="opacity:1" fill="#1a1405" d="M 132.5,228.5 C 132.833,228.5 133.167,228.5 133.5,228.5C 156.082,237.65 179.415,244.65 203.5,249.5C 204.5,249.5 205.5,249.5 206.5,249.5C 224.499,253.453 242.832,256.119 261.5,257.5C 275.327,258.661 289.327,258.827 303.5,258C 305.382,257.802 307.048,257.302 308.5,256.5C 327.025,254.398 344.692,249.398 361.5,241.5C 362.167,240.5 362.833,239.5 363.5,238.5C 363.328,239.492 363.662,240.158 364.5,240.5C 363.9,241.9 362.9,242.9 361.5,243.5C 353.232,247.139 344.899,250.472 336.5,253.5C 333.461,254.01 330.461,254.677 327.5,255.5C 300.362,260.967 273.028,261.967 245.5,258.5C 235.892,256.794 226.225,255.461 216.5,254.5C 195.889,250.411 175.555,245.077 155.5,238.5C 149.932,236.395 144.265,234.228 138.5,232C 123.898,227.226 111.731,230.726 102,242.5C 99.4955,244.833 98.9955,247.499 100.5,250.5C 97.8609,249.294 97.0276,247.294 98,244.5C 106.246,232.295 117.746,226.962 132.5,228.5 Z"/></g>
<g><path style="opacity:0.004" fill="#0e0f0f" d="M 395.5,262.5 C 395.5,263.167 395.5,263.833 395.5,264.5C 394.167,263.833 394.167,263.167 395.5,262.5 Z"/></g>
<g><path style="opacity:1" fill="#638a50" d="M 2.5,182.5 C 2.33335,217.168 2.50002,251.835 3,286.5C 3.23209,287.737 3.73209,288.737 4.5,289.5C 4.83333,290.833 5.16667,292.167 5.5,293.5C 4.11539,292.426 2.94873,291.093 2,289.5C 1.16901,253.664 1.33568,217.998 2.5,182.5 Z"/></g>
<g><path style="opacity:1" fill="#2a2a26" d="M 139.5,258.5 C 138.5,258.5 137.5,258.5 136.5,258.5C 136.739,260.467 136.406,262.301 135.5,264C 121.719,273.303 107.886,282.47 94,291.5C 90.6777,288.853 90.8444,286.353 94.5,284C 92.2922,283.809 90.2922,283.309 88.5,282.5C 91.5682,282.453 94.5682,281.953 97.5,281C 106.01,275.625 114.01,269.792 121.5,263.5C 122.492,263.672 123.158,263.338 123.5,262.5C 126.806,261.18 129.806,259.347 132.5,257C 135.139,256.412 137.473,256.912 139.5,258.5 Z"/></g>
<g><path style="opacity:1" fill="#95593e" d="M 361.5,262.5 C 357.228,266.47 352.228,269.137 346.5,270.5C 297.416,277.6 248.416,277.1 199.5,269C 196.058,267.816 192.725,266.65 189.5,265.5C 198.952,267.367 208.618,268.534 218.5,269C 222.11,270.203 225.776,271.203 229.5,272C 236,272.167 242.5,272.333 249,272.5C 265.822,272.265 282.322,272.265 298.5,272.5C 304.686,271.983 310.853,271.316 317,270.5C 318.984,270.926 320.984,271.26 323,271.5C 330.444,270.098 337.777,268.431 345,266.5C 347.381,267.435 349.881,267.768 352.5,267.5C 352.351,266.448 352.517,265.448 353,264.5C 353.333,264.833 353.667,265.167 354,265.5C 356.427,264.219 358.927,263.219 361.5,262.5 Z"/></g>
<g><path style="opacity:1" fill="#a35c36" d="M 155.5,238.5 C 155.62,239.586 156.287,240.253 157.5,240.5C 167.284,243.595 176.951,246.762 186.5,250C 196.422,251.99 206.422,253.49 216.5,254.5C 226.225,255.461 235.892,256.794 245.5,258.5C 260.761,261.177 276.261,263.177 292,264.5C 302.946,262.844 313.779,260.677 324.5,258C 326.119,257.764 327.119,256.931 327.5,255.5C 330.461,254.677 333.461,254.01 336.5,253.5C 345.608,251.724 354.275,248.724 362.5,244.5C 366.274,244.86 366.94,246.194 364.5,248.5C 367.805,252.795 366.805,255.295 361.5,256C 362.406,257.699 362.739,259.533 362.5,261.5C 362.5,262.167 362.167,262.5 361.5,262.5C 358.927,263.219 356.427,264.219 354,265.5C 353.667,265.167 353.333,264.833 353,264.5C 352.517,265.448 352.351,266.448 352.5,267.5C 349.881,267.768 347.381,267.435 345,266.5C 337.777,268.431 330.444,270.098 323,271.5C 320.984,271.26 318.984,270.926 317,270.5C 310.853,271.316 304.686,271.983 298.5,272.5C 282.322,272.265 265.822,272.265 249,272.5C 242.5,272.333 236,272.167 229.5,272C 225.776,271.203 222.11,270.203 218.5,269C 208.618,268.534 198.952,267.367 189.5,265.5C 185.753,265.608 182.086,265.108 178.5,264C 162.45,258.402 146.117,253.568 129.5,249.5C 126.937,249.737 126.937,250.237 129.5,251C 136.565,253.343 143.565,255.51 150.5,257.5C 151.038,259.117 151.371,260.784 151.5,262.5C 157.977,262.233 164.31,262.9 170.5,264.5C 170.5,265.5 170.5,266.5 170.5,267.5C 182.932,270.025 195.265,273.025 207.5,276.5C 206.636,278.197 205.303,279.363 203.5,280C 205.905,280.148 208.239,279.648 210.5,278.5C 219.261,280.309 227.928,280.309 236.5,278.5C 239.865,279.075 243.198,279.742 246.5,280.5C 271.649,280.457 296.815,280.457 322,280.5C 329.817,279.781 337.65,279.115 345.5,278.5C 349.993,279.177 351.66,281.844 350.5,286.5C 349.5,286.5 348.5,286.5 347.5,286.5C 347.5,287.833 347.5,289.167 347.5,290.5C 347.158,291.338 346.492,291.672 345.5,291.5C 338.956,293.152 332.29,294.152 325.5,294.5C 322.711,294.259 320.044,293.592 317.5,292.5C 310.892,294.841 304.058,295.841 297,295.5C 266.886,296.093 237.053,293.593 207.5,288C 203.019,286.046 198.352,284.713 193.5,284C 192.354,283.355 191.354,282.522 190.5,281.5C 184.856,282.67 179.189,282.67 173.5,281.5C 163.365,278.899 153.365,275.899 143.5,272.5C 145.468,268.215 145.135,263.882 142.5,259.5C 141.583,258.873 140.583,258.539 139.5,258.5C 137.473,256.912 135.139,256.412 132.5,257C 129.806,259.347 126.806,261.18 123.5,262.5C 121.33,261.251 118.996,260.251 116.5,259.5C 115.614,258.675 115.281,257.675 115.5,256.5C 111.654,254.881 107.654,253.381 103.5,252C 102.978,251.439 102.645,250.772 102.5,250C 103.627,247.851 104.96,246.684 106.5,246.5C 105.189,245.742 104.689,244.742 105,243.5C 107.167,242 109,240.167 110.5,238C 114.463,237.851 117.796,236.351 120.5,233.5C 125.435,236.517 130.602,236.517 136,233.5C 142.106,236.606 148.606,238.272 155.5,238.5 Z"/></g>
<g><path style="opacity:1" fill="#945d40" d="M 327.5,255.5 C 327.119,256.931 326.119,257.764 324.5,258C 313.779,260.677 302.946,262.844 292,264.5C 276.261,263.177 260.761,261.177 245.5,258.5C 273.028,261.967 300.362,260.967 327.5,255.5 Z"/></g>
<g><path style="opacity:1" fill="#577046" d="M 308.5,256.5 C 307.048,257.302 305.382,257.802 303.5,258C 289.327,258.827 275.327,258.661 261.5,257.5C 277.171,257.339 292.838,257.006 308.5,256.5 Z"/></g>
<g><path style="opacity:1" fill="#546e41" d="M 206.5,249.5 C 212.329,249.968 217.996,250.635 223.5,251.5C 236.178,253.427 248.845,255.427 261.5,257.5C 242.832,256.119 224.499,253.453 206.5,249.5 Z"/></g>
<g><path style="opacity:1" fill="#320c07" d="M 189.5,265.5 C 192.725,266.65 196.058,267.816 199.5,269C 248.416,277.1 297.416,277.6 346.5,270.5C 346.842,271.338 347.508,271.672 348.5,271.5C 298.289,279.632 247.956,279.465 197.5,271C 181.622,267.207 165.955,262.707 150.5,257.5C 143.565,255.51 136.565,253.343 129.5,251C 126.937,250.237 126.937,249.737 129.5,249.5C 146.117,253.568 162.45,258.402 178.5,264C 182.086,265.108 185.753,265.608 189.5,265.5 Z"/></g>
<g><path style="opacity:1" fill="#598c3e" d="M 142.5,272.5 C 142.833,272.5 143.167,272.5 143.5,272.5C 148.609,275.389 153.943,277.722 159.5,279.5C 161.763,281.383 164.43,282.716 167.5,283.5C 168.262,284.628 168.929,285.795 169.5,287C 174.869,287.203 179.869,288.536 184.5,291C 191.811,292.09 199.144,292.923 206.5,293.5C 214.089,294.882 221.755,295.549 229.5,295.5C 232.258,296.818 235.424,297.485 239,297.5C 245.832,297.924 252.666,298.258 259.5,298.5C 259.833,298.5 260.167,298.5 260.5,298.5C 261.263,299.268 262.263,299.768 263.5,300C 280.145,301.214 296.811,301.714 313.5,301.5C 313.5,302.5 313.5,303.5 313.5,304.5C 311.833,304.5 310.167,304.5 308.5,304.5C 308.5,305.5 308.5,306.5 308.5,307.5C 304.547,310.001 300.547,312.501 296.5,315C 294.19,315.497 291.857,315.663 289.5,315.5C 289.169,317.322 288.502,318.989 287.5,320.5C 285.801,320.34 284.134,320.506 282.5,321C 279.388,322.521 276.388,324.187 273.5,326C 267.439,326.702 261.772,328.535 256.5,331.5C 255.186,330.687 254.019,329.687 253,328.5C 252.788,326.22 251.955,324.22 250.5,322.5C 255.599,320.782 255.599,319.449 250.5,318.5C 247.025,319.286 246.692,320.786 249.5,323C 245.02,323.293 244.687,324.126 248.5,325.5C 249.833,326.833 249.833,328.167 248.5,329.5C 246.333,330.792 244,331.625 241.5,332C 243.833,332.333 246.167,332.667 248.5,333C 240.854,333.903 233.188,334.57 225.5,335C 207.659,335.276 189.825,335.776 172,336.5C 146.951,334.513 122.117,331.847 97.5,328.5C 93.4862,328.666 89.4862,328.499 85.5,328C 84.944,327.617 84.6107,327.117 84.5,326.5C 91.1729,322.776 97.6729,318.776 104,314.5C 104.667,313.167 104.667,311.833 104,310.5C 100.11,306.382 99.6102,301.882 102.5,297C 115.004,289.249 127.337,281.249 139.5,273C 140.448,272.517 141.448,272.351 142.5,272.5 Z"/></g>
<g><path style="opacity:1" fill="#9b5c3d" d="M 150.5,257.5 C 165.955,262.707 181.622,267.207 197.5,271C 247.956,279.465 298.289,279.632 348.5,271.5C 349.496,271.414 350.329,271.748 351,272.5C 355.196,279.631 354.03,285.631 347.5,290.5C 347.5,289.167 347.5,287.833 347.5,286.5C 348.5,286.5 349.5,286.5 350.5,286.5C 351.66,281.844 349.993,279.177 345.5,278.5C 337.65,279.115 329.817,279.781 322,280.5C 296.815,280.457 271.649,280.457 246.5,280.5C 243.198,279.742 239.865,279.075 236.5,278.5C 227.928,280.309 219.261,280.309 210.5,278.5C 208.239,279.648 205.905,280.148 203.5,280C 205.303,279.363 206.636,278.197 207.5,276.5C 195.265,273.025 182.932,270.025 170.5,267.5C 170.5,266.5 170.5,265.5 170.5,264.5C 164.31,262.9 157.977,262.233 151.5,262.5C 151.371,260.784 151.038,259.117 150.5,257.5 Z"/></g>
<g><path style="opacity:1" fill="#101418" d="M 142.5,272.5 C 141.448,272.351 140.448,272.517 139.5,273C 127.337,281.249 115.004,289.249 102.5,297C 99.6102,301.882 100.11,306.382 104,310.5C 104.667,311.833 104.667,313.167 104,314.5C 97.6729,318.776 91.1729,322.776 84.5,326.5C 81.8875,327.095 81.8875,327.929 84.5,329C 82.5273,329.495 80.5273,329.662 78.5,329.5C 78.4386,331.592 77.4386,333.092 75.5,334C 67.3015,338.928 59.3015,344.095 51.5,349.5C 49.0728,348.721 49.0728,347.554 51.5,346C 56.1753,342.66 61.1753,339.827 66.5,337.5C 67.3857,336.675 67.719,335.675 67.5,334.5C 66.5,334.5 65.5,334.5 64.5,334.5C 64.3094,331.017 63.6427,327.684 62.5,324.5C 59.2206,323.969 57.8872,321.969 58.5,318.5C 52.3957,320.757 46.8957,324.091 42,328.5C 40.9701,328.164 40.4701,327.497 40.5,326.5C 45.8812,322.464 51.5479,318.797 57.5,315.5C 58.4419,315.608 59.2753,315.941 60,316.5C 60.3333,318.167 60.6667,319.833 61,321.5C 62.7174,319.127 64.2174,316.627 65.5,314C 71.9821,310.338 78.3154,306.505 84.5,302.5C 86.337,302.639 86.6704,303.306 85.5,304.5C 79.7353,308.59 73.902,312.59 68,316.5C 67.5639,318.847 67.0639,321.181 66.5,323.5C 66.7453,325.663 67.7453,327.33 69.5,328.5C 74.0563,326.114 78.723,323.947 83.5,322C 87.3643,318.568 91.6977,315.901 96.5,314C 94.5732,308.858 91.9065,304.192 88.5,300C 89.2403,297.057 90.2403,296.891 91.5,299.5C 93.5962,298.38 93.9295,296.88 92.5,295C 99.3611,291.478 105.694,287.145 111.5,282C 115.488,281.424 119.155,280.091 122.5,278C 125.342,274.663 128.676,271.83 132.5,269.5C 133.587,265.643 135.921,264.643 139.5,266.5C 141.415,268.071 142.415,270.071 142.5,272.5 Z"/></g>
<g><path style="opacity:1" fill="#5f8046" d="M 159.5,279.5 C 175.162,284.614 190.829,289.281 206.5,293.5C 199.144,292.923 191.811,292.09 184.5,291C 179.869,288.536 174.869,287.203 169.5,287C 168.929,285.795 168.262,284.628 167.5,283.5C 164.43,282.716 161.763,281.383 159.5,279.5 Z"/></g>
<g><path style="opacity:1" fill="#291e20" d="M 364.5,240.5 C 369.958,242.212 372.625,246.045 372.5,252C 372.204,253.888 371.704,255.722 371,257.5C 366.109,263.112 360.443,267.778 354,271.5C 354.032,273.598 354.699,275.598 356,277.5C 356.666,285.016 354,290.35 348,293.5C 344.428,296.635 340.262,298.302 335.5,298.5C 334.791,297.596 333.791,297.263 332.5,297.5C 334.954,296.379 337.621,295.546 340.5,295C 342.584,294.303 344.251,293.136 345.5,291.5C 346.492,291.672 347.158,291.338 347.5,290.5C 354.03,285.631 355.196,279.631 351,272.5C 350.329,271.748 349.496,271.414 348.5,271.5C 347.508,271.672 346.842,271.338 346.5,270.5C 352.228,269.137 357.228,266.47 361.5,262.5C 362.167,262.5 362.5,262.167 362.5,261.5C 366.793,259.593 369.126,256.26 369.5,251.5C 369.776,245.776 367.109,243.109 361.5,243.5C 362.9,242.9 363.9,241.9 364.5,240.5 Z"/></g>
<g><path style="opacity:1" fill="#1a160a" d="M 143.5,272.5 C 153.365,275.899 163.365,278.899 173.5,281.5C 191.313,288.766 209.979,292.933 229.5,294C 263.769,296.939 298.103,298.106 332.5,297.5C 333.791,297.263 334.791,297.596 335.5,298.5C 332.941,298.198 330.607,298.532 328.5,299.5C 326.735,300.461 324.735,300.795 322.5,300.5C 322.389,299.883 322.056,299.383 321.5,299C 306.504,298.5 291.504,298.333 276.5,298.5C 271.167,298.5 265.833,298.5 260.5,298.5C 260.167,298.5 259.833,298.5 259.5,298.5C 249.698,296.959 239.698,295.959 229.5,295.5C 221.755,295.549 214.089,294.882 206.5,293.5C 190.829,289.281 175.162,284.614 159.5,279.5C 153.943,277.722 148.609,275.389 143.5,272.5 Z"/></g>
<g><path style="opacity:1" fill="#945c3f" d="M 173.5,281.5 C 179.189,282.67 184.856,282.67 190.5,281.5C 191.354,282.522 192.354,283.355 193.5,284C 198.352,284.713 203.019,286.046 207.5,288C 237.053,293.593 266.886,296.093 297,295.5C 304.058,295.841 310.892,294.841 317.5,292.5C 320.044,293.592 322.711,294.259 325.5,294.5C 332.29,294.152 338.956,293.152 345.5,291.5C 344.251,293.136 342.584,294.303 340.5,295C 337.621,295.546 334.954,296.379 332.5,297.5C 298.103,298.106 263.769,296.939 229.5,294C 209.979,292.933 191.313,288.766 173.5,281.5 Z"/></g>
<g><path style="opacity:1" fill="#52683d" d="M 229.5,295.5 C 239.698,295.959 249.698,296.959 259.5,298.5C 252.666,298.258 245.832,297.924 239,297.5C 235.424,297.485 232.258,296.818 229.5,295.5 Z"/></g>
<g><path style="opacity:0.451" fill="#585860" d="M 328.5,299.5 C 330.607,298.532 332.941,298.198 335.5,298.5C 333.782,299.224 331.948,299.891 330,300.5C 329.617,299.944 329.117,299.611 328.5,299.5 Z"/></g>
<g><path style="opacity:1" fill="#293125" d="M 84.5,281.5 C 82.5,281.5 80.5,281.5 78.5,281.5C 78.2627,282.791 78.596,283.791 79.5,284.5C 74.4719,289.865 68.4719,294.032 61.5,297C 52.4012,304.832 42.7346,311.665 32.5,317.5C 32.5,316.833 32.1667,316.5 31.5,316.5C 31.6107,315.883 31.944,315.383 32.5,315C 27.6203,312.393 22.6203,310.06 17.5,308C 16.6195,307.292 15.9528,306.458 15.5,305.5C 21.6715,308.415 28.0049,311.082 34.5,313.5C 48.6368,304.196 62.6368,294.696 76.5,285C 77.3802,283.644 77.7135,282.144 77.5,280.5C 80.0593,280.198 82.3926,280.532 84.5,281.5 Z"/></g>
<g><path style="opacity:1" fill="#5d7f47" d="M 260.5,298.5 C 265.833,298.5 271.167,298.5 276.5,298.5C 290.661,299.331 304.994,299.831 319.5,300C 310.27,309.113 299.604,315.946 287.5,320.5C 288.502,318.989 289.169,317.322 289.5,315.5C 291.857,315.663 294.19,315.497 296.5,315C 300.547,312.501 304.547,310.001 308.5,307.5C 308.5,306.5 308.5,305.5 308.5,304.5C 310.167,304.5 311.833,304.5 313.5,304.5C 313.5,303.5 313.5,302.5 313.5,301.5C 296.811,301.714 280.145,301.214 263.5,300C 262.263,299.768 261.263,299.268 260.5,298.5 Z"/></g>
<g><path style="opacity:0.549" fill="#7b7b7e" d="M 6.5,299.5 C 7.5,299.833 8.16667,300.5 8.5,301.5C 5.7131,302.477 2.7131,302.81 -0.5,302.5C -0.5,302.167 -0.5,301.833 -0.5,301.5C 2.00983,301.073 4.34317,300.407 6.5,299.5 Z"/></g>
<g><path style="opacity:1" fill="#1f2020" d="M 139.5,258.5 C 140.583,258.539 141.583,258.873 142.5,259.5C 145.135,263.882 145.468,268.215 143.5,272.5C 143.167,272.5 142.833,272.5 142.5,272.5C 142.415,270.071 141.415,268.071 139.5,266.5C 135.921,264.643 133.587,265.643 132.5,269.5C 128.676,271.83 125.342,274.663 122.5,278C 119.155,280.091 115.488,281.424 111.5,282C 105.694,287.145 99.3611,291.478 92.5,295C 93.9295,296.88 93.5962,298.38 91.5,299.5C 90.2403,296.891 89.2403,297.057 88.5,300C 91.9065,304.192 94.5732,308.858 96.5,314C 91.6977,315.901 87.3643,318.568 83.5,322C 78.723,323.947 74.0563,326.114 69.5,328.5C 67.7453,327.33 66.7453,325.663 66.5,323.5C 67.0639,321.181 67.5639,318.847 68,316.5C 73.902,312.59 79.7353,308.59 85.5,304.5C 86.6704,303.306 86.337,302.639 84.5,302.5C 85.209,301.596 86.209,301.263 87.5,301.5C 87.8412,297.84 87.1745,294.507 85.5,291.5C 83.6878,289.539 82.6878,287.206 82.5,284.5C 81.5,284.5 80.5,284.5 79.5,284.5C 78.596,283.791 78.2627,282.791 78.5,281.5C 80.5,281.5 82.5,281.5 84.5,281.5C 85.8333,281.833 87.1667,282.167 88.5,282.5C 90.2922,283.309 92.2922,283.809 94.5,284C 90.8444,286.353 90.6777,288.853 94,291.5C 107.886,282.47 121.719,273.303 135.5,264C 136.406,262.301 136.739,260.467 136.5,258.5C 137.5,258.5 138.5,258.5 139.5,258.5 Z"/></g>
<g><path style="opacity:0.671" fill="#141a15" d="M 276.5,298.5 C 291.504,298.333 306.504,298.5 321.5,299C 322.056,299.383 322.389,299.883 322.5,300.5C 317.053,306.612 310.72,311.612 303.5,315.5C 302.29,315.932 301.29,316.599 300.5,317.5C 297.455,318.279 294.789,319.613 292.5,321.5C 282.846,325.819 272.846,329.319 262.5,332C 261.295,333.376 259.962,334.542 258.5,335.5C 255.944,336.051 253.611,337.051 251.5,338.5C 251.232,336.901 251.566,335.568 252.5,334.5C 254.527,334.662 256.527,334.495 258.5,334C 262.871,329.583 268.204,327.25 274.5,327C 278.981,324.91 283.314,322.743 287.5,320.5C 299.604,315.946 310.27,309.113 319.5,300C 304.994,299.831 290.661,299.331 276.5,298.5 Z"/></g>
<g><path style="opacity:1" fill="#dad9da" d="M 11.5,304.5 C 12.1667,304.5 12.8333,304.5 13.5,304.5C 13.8417,305.338 14.5084,305.672 15.5,305.5C 15.9528,306.458 16.6195,307.292 17.5,308C 22.6203,310.06 27.6203,312.393 32.5,315C 31.944,315.383 31.6107,315.883 31.5,316.5C 28.6802,316.752 26.0135,316.252 23.5,315C 19.2617,311.583 15.2617,308.083 11.5,304.5 Z"/></g>
<g><path style="opacity:1" fill="#4f504b" d="M 79.5,284.5 C 80.5,284.5 81.5,284.5 82.5,284.5C 82.6878,287.206 83.6878,289.539 85.5,291.5C 85.6309,292.376 85.2975,293.043 84.5,293.5C 79.8999,287.914 75.8999,288.414 72.5,295C 70.0119,296.462 67.3452,297.462 64.5,298C 52.4454,307.356 40.1121,316.356 27.5,325C 26.8333,326 26.1667,327 25.5,328C 22.3516,329.076 19.3516,330.409 16.5,332C 15.8333,333 15.1667,334 14.5,335C 13.5632,335.692 12.8966,335.525 12.5,334.5C 12.7438,331.737 14.0771,329.571 16.5,328C 21.9656,324.701 27.2989,321.201 32.5,317.5C 42.7346,311.665 52.4012,304.832 61.5,297C 68.4719,294.032 74.4719,289.865 79.5,284.5 Z"/></g>
<g><path style="opacity:1" fill="#2d2c2f" d="M 8.5,301.5 C 9.83333,302.167 10.8333,303.167 11.5,304.5C 15.2617,308.083 19.2617,311.583 23.5,315C 26.0135,316.252 28.6802,316.752 31.5,316.5C 32.1667,316.5 32.5,316.833 32.5,317.5C 27.2989,321.201 21.9656,324.701 16.5,328C 14.0771,329.571 12.7438,331.737 12.5,334.5C 7.96916,336.597 3.63582,338.93 -0.5,341.5C -0.5,328.5 -0.5,315.5 -0.5,302.5C 2.7131,302.81 5.7131,302.477 8.5,301.5 Z"/></g>
<g><path style="opacity:0.37" fill="#89888d" d="M 303.5,315.5 C 304.681,317.067 306.347,317.901 308.5,318C 317.593,319.152 326.593,320.819 335.5,323C 337.179,325.565 337.846,328.398 337.5,331.5C 336.883,331.611 336.383,331.944 336,332.5C 335.782,329.574 335.282,326.74 334.5,324C 322.942,322.654 311.608,320.488 300.5,317.5C 301.29,316.599 302.29,315.932 303.5,315.5 Z"/></g>
<g><path style="opacity:1" fill="#343532" d="M 395.5,278.5 C 395.5,285.5 395.5,292.5 395.5,299.5C 394.197,302.507 392.697,305.507 391,308.5C 390.198,303.796 388.031,302.796 384.5,305.5C 371.864,321.78 358.531,337.447 344.5,352.5C 343.571,351.311 343.238,349.978 343.5,348.5C 342.5,348.5 341.5,348.5 340.5,348.5C 343.37,344.082 346.703,340.082 350.5,336.5C 352.51,332.97 354.344,329.304 356,325.5C 362.208,318.961 368.041,312.127 373.5,305C 374.793,304.51 376.127,304.343 377.5,304.5C 377.337,302.143 377.503,299.81 378,297.5C 383.038,290.301 388.872,283.967 395.5,278.5 Z"/></g>
<g><path style="opacity:1" fill="#343632" d="M 85.5,291.5 C 87.1745,294.507 87.8412,297.84 87.5,301.5C 86.209,301.263 85.209,301.596 84.5,302.5C 78.3154,306.505 71.9821,310.338 65.5,314C 64.2174,316.627 62.7174,319.127 61,321.5C 60.6667,319.833 60.3333,318.167 60,316.5C 59.2753,315.941 58.4419,315.608 57.5,315.5C 51.5479,318.797 45.8812,322.464 40.5,326.5C 28.4023,334.393 16.4023,342.56 4.5,351C 2.86586,351.494 1.19919,351.66 -0.5,351.5C -0.5,348.167 -0.5,344.833 -0.5,341.5C 3.63582,338.93 7.96916,336.597 12.5,334.5C 12.8966,335.525 13.5632,335.692 14.5,335C 15.1667,334 15.8333,333 16.5,332C 19.3516,330.409 22.3516,329.076 25.5,328C 26.1667,327 26.8333,326 27.5,325C 40.1121,316.356 52.4454,307.356 64.5,298C 67.3452,297.462 70.0119,296.462 72.5,295C 75.8999,288.414 79.8999,287.914 84.5,293.5C 85.2975,293.043 85.6309,292.376 85.5,291.5 Z"/></g>
<g><path style="opacity:1" fill="#4c4d49" d="M 395.5,273.5 C 395.5,275.167 395.5,276.833 395.5,278.5C 388.872,283.967 383.038,290.301 378,297.5C 377.503,299.81 377.337,302.143 377.5,304.5C 376.127,304.343 374.793,304.51 373.5,305C 368.041,312.127 362.208,318.961 356,325.5C 354.344,329.304 352.51,332.97 350.5,336.5C 349.209,336.737 348.209,336.404 347.5,335.5C 347.144,332.436 347.977,329.769 350,327.5C 364.804,308.89 379.971,290.89 395.5,273.5 Z"/></g>
<g><path style="opacity:0.999" fill="#39373a" d="M 300.5,317.5 C 311.608,320.488 322.942,322.654 334.5,324C 335.282,326.74 335.782,329.574 336,332.5C 336.383,331.944 336.883,331.611 337.5,331.5C 337.5,332.167 337.5,332.833 337.5,333.5C 333.065,333.607 329.065,334.94 325.5,337.5C 324.571,338.689 324.238,340.022 324.5,341.5C 323.9,340.1 322.9,339.1 321.5,338.5C 321.5,337.5 321.5,336.5 321.5,335.5C 319.5,335.5 317.5,335.5 315.5,335.5C 317.434,332.728 316.767,330.895 313.5,330C 313.833,329.667 314.167,329.333 314.5,329C 310.893,330.449 308.393,329.282 307,325.5C 304.834,326.776 302.834,326.443 301,324.5C 299.211,325.409 297.377,325.576 295.5,325C 295.957,324.586 296.291,324.086 296.5,323.5C 295.234,322.638 293.901,321.971 292.5,321.5C 294.789,319.613 297.455,318.279 300.5,317.5 Z"/></g>
<g><path style="opacity:0.734" fill="#1b1b1b" d="M 395.5,268.5 C 395.5,270.167 395.5,271.833 395.5,273.5C 379.971,290.89 364.804,308.89 350,327.5C 347.977,329.769 347.144,332.436 347.5,335.5C 344.896,337.6 342.396,339.933 340,342.5C 339.616,340.803 339.782,339.137 340.5,337.5C 341.462,335.164 340.462,333.83 337.5,333.5C 337.5,332.833 337.5,332.167 337.5,331.5C 339.144,331.286 340.644,331.62 342,332.5C 360.056,311.284 377.889,289.951 395.5,268.5 Z"/></g>
<g><path style="opacity:1" fill="#232423" d="M 395.5,299.5 C 395.5,313.5 395.5,327.5 395.5,341.5C 392.721,342.609 391.054,344.609 390.5,347.5C 386.651,347.981 384.651,346.314 384.5,342.5C 375.643,347.868 368.976,355.368 364.5,365C 368.027,369.025 368.027,373.191 364.5,377.5C 362.727,376.913 360.894,376.58 359,376.5C 353.581,377.769 348.081,378.603 342.5,379C 340.24,380.335 338.073,381.835 336,383.5C 335.209,384.745 334.709,386.078 334.5,387.5C 329.167,387.5 323.833,387.5 318.5,387.5C 319.44,385.388 320.606,383.388 322,381.5C 326.998,376.999 331.498,371.999 335.5,366.5C 334.311,365.571 332.978,365.238 331.5,365.5C 335.13,362.32 338.297,358.653 341,354.5C 341.49,352.455 341.323,350.455 340.5,348.5C 341.5,348.5 342.5,348.5 343.5,348.5C 343.238,349.978 343.571,351.311 344.5,352.5C 358.531,337.447 371.864,321.78 384.5,305.5C 388.031,302.796 390.198,303.796 391,308.5C 392.697,305.507 394.197,302.507 395.5,299.5 Z"/></g>
<g><path style="opacity:1" fill="#ededed" d="M 337.5,333.5 C 340.462,333.83 341.462,335.164 340.5,337.5C 337.588,339.802 335.255,342.636 333.5,346C 331.807,345.536 330.14,344.703 328.5,343.5C 326.938,343.267 325.605,342.6 324.5,341.5C 324.238,340.022 324.571,338.689 325.5,337.5C 329.065,334.94 333.065,333.607 337.5,333.5 Z"/></g>
<g><path style="opacity:1" fill="#5b8648" d="M 287.5,320.5 C 283.314,322.743 278.981,324.91 274.5,327C 268.204,327.25 262.871,329.583 258.5,334C 256.527,334.495 254.527,334.662 252.5,334.5C 201.257,339.433 149.923,338.099 98.5,330.5C 98.5,329.833 98.1667,329.5 97.5,329.5C 97.5,329.167 97.5,328.833 97.5,328.5C 122.117,331.847 146.951,334.513 172,336.5C 189.825,335.776 207.659,335.276 225.5,335C 233.188,334.57 240.854,333.903 248.5,333C 246.167,332.667 243.833,332.333 241.5,332C 244,331.625 246.333,330.792 248.5,329.5C 249.833,328.167 249.833,326.833 248.5,325.5C 244.687,324.126 245.02,323.293 249.5,323C 246.692,320.786 247.025,319.286 250.5,318.5C 255.599,319.449 255.599,320.782 250.5,322.5C 251.955,324.22 252.788,326.22 253,328.5C 254.019,329.687 255.186,330.687 256.5,331.5C 261.772,328.535 267.439,326.702 273.5,326C 276.388,324.187 279.388,322.521 282.5,321C 284.134,320.506 285.801,320.34 287.5,320.5 Z"/></g>
<g><path style="opacity:1" fill="#f9fafb" d="M 258.5,335.5 C 258.025,337.784 257.025,339.784 255.5,341.5C 253.403,344.053 251.07,346.386 248.5,348.5C 225.31,357.688 201.476,360.022 177,355.5C 175.431,356.122 173.764,356.456 172,356.5C 150.081,355.469 128.248,354.635 106.5,354C 98.1508,354.944 92.1508,351.778 88.5,344.5C 129.734,351.245 171.068,353.578 212.5,351.5C 224.345,351.205 235.678,348.705 246.5,344C 247.381,343.292 248.047,342.458 248.5,341.5C 249.5,341.167 250.167,340.5 250.5,339.5C 251.167,339.5 251.5,339.167 251.5,338.5C 253.611,337.051 255.944,336.051 258.5,335.5 Z"/></g>
<g><path style="opacity:1" fill="#232423" d="M 51.5,349.5 C 50.791,350.404 49.791,350.737 48.5,350.5C 47.6046,346.55 46.6046,342.55 45.5,338.5C 44.2638,337.754 42.9305,337.421 41.5,337.5C 41.3184,342.453 42.3184,347.119 44.5,351.5C 42.2017,352.31 39.8684,353.144 37.5,354C 31.4496,357.687 25.7829,361.854 20.5,366.5C 20.1667,367.167 19.8333,367.833 19.5,368.5C 20.2798,369.949 20.9465,371.449 21.5,373C 17.9153,377.337 15.2486,382.17 13.5,387.5C 10.8333,387.5 8.16667,387.5 5.5,387.5C 4.73221,384.438 2.73221,382.772 -0.5,382.5C -0.5,372.167 -0.5,361.833 -0.5,351.5C 1.19919,351.66 2.86586,351.494 4.5,351C 16.4023,342.56 28.4023,334.393 40.5,326.5C 40.4701,327.497 40.9701,328.164 42,328.5C 46.8957,324.091 52.3957,320.757 58.5,318.5C 57.8872,321.969 59.2206,323.969 62.5,324.5C 63.6427,327.684 64.3094,331.017 64.5,334.5C 65.5,334.5 66.5,334.5 67.5,334.5C 67.719,335.675 67.3857,336.675 66.5,337.5C 61.1753,339.827 56.1753,342.66 51.5,346C 49.0728,347.554 49.0728,348.721 51.5,349.5 Z"/></g>
<g><path style="opacity:1" fill="#0e200b" d="M 98.5,330.5 C 149.923,338.099 201.257,339.433 252.5,334.5C 251.566,335.568 251.232,336.901 251.5,338.5C 251.5,339.167 251.167,339.5 250.5,339.5C 250.5,338.5 250.5,337.5 250.5,336.5C 244.743,336.761 239.077,337.594 233.5,339C 207.167,339.667 180.833,339.667 154.5,339C 135.181,336.668 115.847,334.501 96.5,332.5C 96.8333,331.5 97.5,330.833 98.5,330.5 Z"/></g>
<g><path style="opacity:1" fill="#28282b" d="M 292.5,321.5 C 293.901,321.971 295.234,322.638 296.5,323.5C 296.291,324.086 295.957,324.586 295.5,325C 297.377,325.576 299.211,325.409 301,324.5C 302.834,326.443 304.834,326.776 307,325.5C 308.393,329.282 310.893,330.449 314.5,329C 314.167,329.333 313.833,329.667 313.5,330C 316.767,330.895 317.434,332.728 315.5,335.5C 317.5,335.5 319.5,335.5 321.5,335.5C 321.5,336.5 321.5,337.5 321.5,338.5C 319.565,337.85 317.565,337.517 315.5,337.5C 313.554,341.316 311.721,345.316 310,349.5C 308.129,358.652 305.796,367.652 303,376.5C 299.418,375.187 294.918,375.187 289.5,376.5C 275.556,374.392 261.556,372.726 247.5,371.5C 247.781,367.812 248.281,364.145 249,360.5C 251.782,354.293 253.949,347.959 255.5,341.5C 257.025,339.784 258.025,337.784 258.5,335.5C 259.962,334.542 261.295,333.376 262.5,332C 272.846,329.319 282.846,325.819 292.5,321.5 Z"/></g>
<g><path style="opacity:1" fill="#5a8c42" d="M 223.5,348.5 C 222.5,348.5 221.5,348.5 220.5,348.5C 208.674,348.974 196.841,349.307 185,349.5C 167.167,348.792 149.334,348.125 131.5,347.5C 129.833,347.5 128.167,347.5 126.5,347.5C 113.632,344.433 100.632,342.1 87.5,340.5C 88.9108,338.086 90.9108,336.419 93.5,335.5C 95.126,335.062 96.7927,334.728 98.5,334.5C 137.973,339.732 177.64,342.398 217.5,342.5C 226.091,340.789 234.758,339.956 243.5,340C 237.142,342.953 230.475,344.786 223.5,345.5C 223.5,346.5 223.5,347.5 223.5,348.5 Z"/></g>
<g><path style="opacity:1" fill="#587f48" d="M 96.5,332.5 C 115.847,334.501 135.181,336.668 154.5,339C 180.833,339.667 207.167,339.667 233.5,339C 239.077,337.594 244.743,336.761 250.5,336.5C 250.5,337.5 250.5,338.5 250.5,339.5C 250.167,340.5 249.5,341.167 248.5,341.5C 240.698,345.535 232.364,347.869 223.5,348.5C 223.5,347.5 223.5,346.5 223.5,345.5C 230.475,344.786 237.142,342.953 243.5,340C 234.758,339.956 226.091,340.789 217.5,342.5C 177.64,342.398 137.973,339.732 98.5,334.5C 96.7927,334.728 95.126,335.062 93.5,335.5C 94.1667,334.167 95.1667,333.167 96.5,332.5 Z"/></g>
<g><path style="opacity:1" fill="#323230" d="M 84.5,326.5 C 84.6107,327.117 84.944,327.617 85.5,328C 89.4862,328.499 93.4862,328.666 97.5,328.5C 97.5,328.833 97.5,329.167 97.5,329.5C 93.173,328.803 90.5063,330.47 89.5,334.5C 86.3273,334.401 83.3273,335.068 80.5,336.5C 68.755,342.997 57.755,350.33 47.5,358.5C 45.1663,356.824 44.1663,354.491 44.5,351.5C 42.3184,347.119 41.3184,342.453 41.5,337.5C 42.9305,337.421 44.2638,337.754 45.5,338.5C 46.6046,342.55 47.6046,346.55 48.5,350.5C 49.791,350.737 50.791,350.404 51.5,349.5C 59.3015,344.095 67.3015,338.928 75.5,334C 77.4386,333.092 78.4386,331.592 78.5,329.5C 80.5273,329.662 82.5273,329.495 84.5,329C 81.8875,327.929 81.8875,327.095 84.5,326.5 Z"/></g>
<g><path style="opacity:0.961" fill="#0c0e0f" d="M 395.5,341.5 C 395.5,344.5 395.5,347.5 395.5,350.5C 393.394,348.756 392.061,349.256 391.5,352C 392.704,353.699 394.038,355.199 395.5,356.5C 395.5,359.833 395.5,363.167 395.5,366.5C 391.053,362.504 390.387,363.338 393.5,369C 392.767,370.766 392.433,372.599 392.5,374.5C 390.896,375.287 390.229,376.62 390.5,378.5C 390.414,379.496 390.748,380.329 391.5,381C 389.014,381.656 387.347,383.156 386.5,385.5C 385.662,385.842 385.328,386.508 385.5,387.5C 384.167,387.5 382.833,387.5 381.5,387.5C 383.441,386.326 384.941,384.659 386,382.5C 387.373,378.951 389.04,375.618 391,372.5C 391.253,365.439 387.753,362.605 380.5,364C 378.99,368.549 377.324,373.049 375.5,377.5C 374.964,375.577 374.964,373.41 375.5,371C 375.029,367.854 374.029,365.021 372.5,362.5C 371.5,362.5 370.5,362.5 369.5,362.5C 369.083,365.079 369.75,367.246 371.5,369C 370.484,369.519 369.818,370.353 369.5,371.5C 370.068,376.656 370.735,381.656 371.5,386.5C 371.5,386.833 371.5,387.167 371.5,387.5C 369.167,387.5 366.833,387.5 364.5,387.5C 367.711,381.644 365.878,378.31 359,377.5C 353.395,379.68 347.562,380.847 341.5,381C 339.21,382.777 337.543,384.944 336.5,387.5C 335.833,387.5 335.167,387.5 334.5,387.5C 334.709,386.078 335.209,384.745 336,383.5C 338.073,381.835 340.24,380.335 342.5,379C 348.081,378.603 353.581,377.769 359,376.5C 360.894,376.58 362.727,376.913 364.5,377.5C 368.027,373.191 368.027,369.025 364.5,365C 368.976,355.368 375.643,347.868 384.5,342.5C 384.651,346.314 386.651,347.981 390.5,347.5C 391.054,344.609 392.721,342.609 395.5,341.5 Z"/></g>
<g><path style="opacity:1" fill="#3e3f3d" d="M 347.5,335.5 C 348.209,336.404 349.209,336.737 350.5,336.5C 346.703,340.082 343.37,344.082 340.5,348.5C 341.323,350.455 341.49,352.455 341,354.5C 338.297,358.653 335.13,362.32 331.5,365.5C 330.442,368.413 329.109,371.246 327.5,374C 322.305,376.838 317.138,379.671 312,382.5C 311.878,384.282 312.378,385.948 313.5,387.5C 311.167,387.5 308.833,387.5 306.5,387.5C 306.338,385.473 306.505,383.473 307,381.5C 309.148,380.023 310.482,378.023 311,375.5C 317.699,367.226 324.699,358.893 332,350.5C 332.167,350 332.333,349.5 332.5,349C 330.562,347.569 329.229,345.735 328.5,343.5C 330.14,344.703 331.807,345.536 333.5,346C 335.255,342.636 337.588,339.802 340.5,337.5C 339.782,339.137 339.616,340.803 340,342.5C 342.396,339.933 344.896,337.6 347.5,335.5 Z"/></g>
<g><path style="opacity:1" fill="#1c1a1d" d="M 97.5,329.5 C 98.1667,329.5 98.5,329.833 98.5,330.5C 97.5,330.833 96.8333,331.5 96.5,332.5C 95.1667,333.167 94.1667,334.167 93.5,335.5C 90.9108,336.419 88.9108,338.086 87.5,340.5C 86.9569,340.56 86.6236,340.893 86.5,341.5C 87.2427,342.182 87.9094,342.849 88.5,343.5C 87.1667,343.833 87.1667,344.167 88.5,344.5C 92.1508,351.778 98.1508,354.944 106.5,354C 128.248,354.635 150.081,355.469 172,356.5C 173.764,356.456 175.431,356.122 177,355.5C 201.476,360.022 225.31,357.688 248.5,348.5C 247.283,353.247 245.783,357.914 244,362.5C 241.801,366.897 239.635,371.231 237.5,375.5C 240.097,375.643 242.431,376.477 244.5,378C 262.969,378.647 281.303,380.48 299.5,383.5C 299.672,381.508 299.005,379.842 297.5,378.5C 294.694,377.832 292.028,377.166 289.5,376.5C 294.918,375.187 299.418,375.187 303,376.5C 305.796,367.652 308.129,358.652 310,349.5C 311.721,345.316 313.554,341.316 315.5,337.5C 317.565,337.517 319.565,337.85 321.5,338.5C 322.9,339.1 323.9,340.1 324.5,341.5C 325.605,342.6 326.938,343.267 328.5,343.5C 329.229,345.735 330.562,347.569 332.5,349C 332.333,349.5 332.167,350 332,350.5C 324.699,358.893 317.699,367.226 311,375.5C 310.482,378.023 309.148,380.023 307,381.5C 306.505,383.473 306.338,385.473 306.5,387.5C 243.167,387.5 179.833,387.5 116.5,387.5C 115.68,385.86 114.847,384.193 114,382.5C 104.69,372.87 95.857,363.036 87.5,353C 83.8746,349.553 79.5412,347.719 74.5,347.5C 72.4527,348.185 70.7861,349.351 69.5,351C 72.3183,355.156 75.1517,359.323 78,363.5C 79.2542,367.111 78.0876,368.611 74.5,368C 70.0374,362.886 65.7041,357.719 61.5,352.5C 59.7709,355.91 57.4376,358.743 54.5,361C 55.9799,364.13 57.8132,366.963 60,369.5C 64.6817,375.037 68.8484,381.037 72.5,387.5C 67.8333,387.5 63.1667,387.5 58.5,387.5C 58.162,385.146 57.662,382.813 57,380.5C 54,375.5 51,370.5 48,365.5C 47.376,363.536 47.876,361.869 49.5,360.5C 48.7573,359.818 48.0906,359.151 47.5,358.5C 57.755,350.33 68.755,342.997 80.5,336.5C 83.3273,335.068 86.3273,334.401 89.5,334.5C 90.5063,330.47 93.173,328.803 97.5,329.5 Z"/></g>
<g><path style="opacity:1" fill="#11232d" d="M 248.5,341.5 C 248.047,342.458 247.381,343.292 246.5,344C 235.678,348.705 224.345,351.205 212.5,351.5C 197.657,351.829 182.99,351.496 168.5,350.5C 182.837,350.667 197.171,350.5 211.5,350C 214.695,349.819 217.695,349.319 220.5,348.5C 221.5,348.5 222.5,348.5 223.5,348.5C 232.364,347.869 240.698,345.535 248.5,341.5 Z"/></g>
<g><path style="opacity:1" fill="#5a7e5b" d="M 131.5,347.5 C 149.334,348.125 167.167,348.792 185,349.5C 196.841,349.307 208.674,348.974 220.5,348.5C 217.695,349.319 214.695,349.819 211.5,350C 197.171,350.5 182.837,350.667 168.5,350.5C 155.934,350.581 143.601,349.581 131.5,347.5 Z"/></g>
<g><path style="opacity:1" fill="#051530" d="M 88.5,343.5 C 101.126,345.199 113.793,346.533 126.5,347.5C 128.167,347.5 129.833,347.5 131.5,347.5C 143.601,349.581 155.934,350.581 168.5,350.5C 182.99,351.496 197.657,351.829 212.5,351.5C 171.068,353.578 129.734,351.245 88.5,344.5C 87.1667,344.167 87.1667,343.833 88.5,343.5 Z"/></g>
<g><path style="opacity:1" fill="#567957" d="M 87.5,340.5 C 100.632,342.1 113.632,344.433 126.5,347.5C 113.793,346.533 101.126,345.199 88.5,343.5C 87.9094,342.849 87.2427,342.182 86.5,341.5C 86.6236,340.893 86.9569,340.56 87.5,340.5 Z"/></g>
<g><path style="opacity:1" fill="#2d2f2d" d="M 116.5,387.5 C 101.833,387.5 87.1667,387.5 72.5,387.5C 68.8484,381.037 64.6817,375.037 60,369.5C 57.8132,366.963 55.9799,364.13 54.5,361C 57.4376,358.743 59.7709,355.91 61.5,352.5C 65.7041,357.719 70.0374,362.886 74.5,368C 78.0876,368.611 79.2542,367.111 78,363.5C 75.1517,359.323 72.3183,355.156 69.5,351C 70.7861,349.351 72.4527,348.185 74.5,347.5C 79.5412,347.719 83.8746,349.553 87.5,353C 95.857,363.036 104.69,372.87 114,382.5C 114.847,384.193 115.68,385.86 116.5,387.5 Z"/></g>
<g><path style="opacity:1" fill="#55853a" d="M 381.5,387.5 C 379.833,387.5 378.167,387.5 376.5,387.5C 374.296,384.397 373.963,381.063 375.5,377.5C 377.324,373.049 378.99,368.549 380.5,364C 387.753,362.605 391.253,365.439 391,372.5C 389.04,375.618 387.373,378.951 386,382.5C 384.941,384.659 383.441,386.326 381.5,387.5 Z"/></g>
<g><path style="opacity:1" fill="#212321" d="M 375.5,377.5 C 373.963,381.063 374.296,384.397 376.5,387.5C 375.5,387.5 374.5,387.5 373.5,387.5C 372.686,383.466 372.353,379.466 372.5,375.5C 371.511,379.107 371.177,382.774 371.5,386.5C 370.735,381.656 370.068,376.656 369.5,371.5C 369.818,370.353 370.484,369.519 371.5,369C 369.75,367.246 369.083,365.079 369.5,362.5C 370.5,362.5 371.5,362.5 372.5,362.5C 374.029,365.021 375.029,367.854 375.5,371C 374.964,373.41 374.964,375.577 375.5,377.5 Z"/></g>
<g><path style="opacity:1" fill="#0c0b0d" d="M 255.5,341.5 C 253.949,347.959 251.782,354.293 249,360.5C 248.281,364.145 247.781,367.812 247.5,371.5C 261.556,372.726 275.556,374.392 289.5,376.5C 292.028,377.166 294.694,377.832 297.5,378.5C 299.005,379.842 299.672,381.508 299.5,383.5C 281.303,380.48 262.969,378.647 244.5,378C 242.431,376.477 240.097,375.643 237.5,375.5C 239.635,371.231 241.801,366.897 244,362.5C 245.783,357.914 247.283,353.247 248.5,348.5C 251.07,346.386 253.403,344.053 255.5,341.5 Z"/></g>
<g><path style="opacity:1" fill="#55853a" d="M 364.5,387.5 C 355.167,387.5 345.833,387.5 336.5,387.5C 337.543,384.944 339.21,382.777 341.5,381C 347.562,380.847 353.395,379.68 359,377.5C 365.878,378.31 367.711,381.644 364.5,387.5 Z"/></g>
<g><path style="opacity:1" fill="#0b0c0d" d="M 331.5,365.5 C 332.978,365.238 334.311,365.571 335.5,366.5C 331.498,371.999 326.998,376.999 322,381.5C 320.606,383.388 319.44,385.388 318.5,387.5C 316.833,387.5 315.167,387.5 313.5,387.5C 312.378,385.948 311.878,384.282 312,382.5C 317.138,379.671 322.305,376.838 327.5,374C 329.109,371.246 330.442,368.413 331.5,365.5 Z"/></g>
<g><path style="opacity:1" fill="#969797" d="M 373.5,387.5 C 372.833,387.5 372.167,387.5 371.5,387.5C 371.5,387.167 371.5,386.833 371.5,386.5C 371.177,382.774 371.511,379.107 372.5,375.5C 372.353,379.466 372.686,383.466 373.5,387.5 Z"/></g>
<g><path style="opacity:1" fill="#538139" d="M -0.5,382.5 C 2.73221,382.772 4.73221,384.438 5.5,387.5C 3.5,387.5 1.5,387.5 -0.5,387.5C -0.5,385.833 -0.5,384.167 -0.5,382.5 Z"/></g>
<g><path style="opacity:1" fill="#090c0f" d="M 44.5,351.5 C 44.1663,354.491 45.1663,356.824 47.5,358.5C 48.0906,359.151 48.7573,359.818 49.5,360.5C 47.876,361.869 47.376,363.536 48,365.5C 51,370.5 54,375.5 57,380.5C 57.662,382.813 58.162,385.146 58.5,387.5C 56.8333,387.5 55.1667,387.5 53.5,387.5C 51.3633,382.407 48.53,377.74 45,373.5C 43.0026,359.407 36.8359,357.073 26.5,366.5C 24.3586,369.327 24.3586,371.993 26.5,374.5C 25.1468,375.524 24.4802,376.857 24.5,378.5C 27.518,378.2 29.518,376.533 30.5,373.5C 28.8955,371.821 28.2289,369.821 28.5,367.5C 39.0723,367.261 43.5723,372.594 42,383.5C 41.3103,385.35 40.1436,386.684 38.5,387.5C 37.8333,387.5 37.1667,387.5 36.5,387.5C 37.7927,385.704 39.2927,384.037 41,382.5C 42.1667,375.667 39.3333,372.833 32.5,374C 30.7068,376.795 28.5402,379.295 26,381.5C 25.5045,383.473 25.3379,385.473 25.5,387.5C 21.5,387.5 17.5,387.5 13.5,387.5C 15.2486,382.17 17.9153,377.337 21.5,373C 20.9465,371.449 20.2798,369.949 19.5,368.5C 19.8333,367.833 20.1667,367.167 20.5,366.5C 25.7829,361.854 31.4496,357.687 37.5,354C 39.8684,353.144 42.2017,352.31 44.5,351.5 Z"/></g>
<g><path style="opacity:1" fill="#212121" d="M 53.5,387.5 C 48.5,387.5 43.5,387.5 38.5,387.5C 40.1436,386.684 41.3103,385.35 42,383.5C 43.5723,372.594 39.0723,367.261 28.5,367.5C 28.2289,369.821 28.8955,371.821 30.5,373.5C 29.518,376.533 27.518,378.2 24.5,378.5C 24.4802,376.857 25.1468,375.524 26.5,374.5C 24.3586,371.993 24.3586,369.327 26.5,366.5C 36.8359,357.073 43.0026,359.407 45,373.5C 48.53,377.74 51.3633,382.407 53.5,387.5 Z"/></g>
<g><path style="opacity:1" fill="#54843a" d="M 36.5,387.5 C 32.8333,387.5 29.1667,387.5 25.5,387.5C 25.3379,385.473 25.5045,383.473 26,381.5C 28.5402,379.295 30.7068,376.795 32.5,374C 39.3333,372.833 42.1667,375.667 41,382.5C 39.2927,384.037 37.7927,385.704 36.5,387.5 Z"/></g>
<g><path style="opacity:0.225" fill="#252626" d="M 395.5,366.5 C 395.5,373.5 395.5,380.5 395.5,387.5C 394.167,387.5 392.833,387.5 391.5,387.5C 391.167,386.167 390.833,386.167 390.5,387.5C 389.5,387.5 388.5,387.5 387.5,387.5C 387.167,386.833 386.833,386.167 386.5,385.5C 387.347,383.156 389.014,381.656 391.5,381C 390.748,380.329 390.414,379.496 390.5,378.5C 391.5,378.5 392.5,378.5 393.5,378.5C 393.567,377.041 393.234,375.708 392.5,374.5C 392.433,372.599 392.767,370.766 393.5,369C 390.387,363.338 391.053,362.504 395.5,366.5 Z"/></g>
</svg>
